<svg width="293" height="48" viewBox="0 0 293 48" fill="none" xmlns="http://www.w3.org/2000/svg">
<path d="M268.219 32.9688C268.844 38.7188 272.781 40.2656 277.344 40.2656C280.344 40.2656 282.906 40.6094 285.078 37.5156C285.734 36.5781 287.891 35.4531 289.672 36.5625C291.672 37.8125 291.516 40.1094 290.297 41.7812C287.344 45.8281 282.766 46.8594 277.344 46.8594C268.906 46.8594 261.156 41.0156 261.156 31.1875C261.156 21.2969 266.656 13.5312 277.594 13.5312C287.609 13.5312 292.969 20.2344 292.969 30.3125V30.6875C292.969 31.7188 292.266 32.9688 291.25 32.9688H268.219ZM286.422 27.0781C285.422 22 282.297 20.125 277.594 20.125C272.781 20.125 269.219 22.0625 268.219 27.0781H286.422ZM249.375 37.0781C249.375 39.2188 250.906 40.2031 253.281 40.2031C253.641 40.2031 254.031 40.2812 254.453 40.2031C255.953 39.9375 257.406 41.2031 257.734 42.7031C258.094 44.2188 257.203 45.6875 255.719 46.1406C254.703 46.4531 253.516 46.875 252 46.8594C246.891 46.8125 242.312 43.125 242.312 38.0156V4.10938C242.361 3.18961 242.746 2.31973 243.394 1.66559C244.042 1.01146 244.909 0.618804 245.828 0.5625C246.748 0.614743 247.616 1.00356 248.267 1.65481C248.918 2.30607 249.307 3.17422 249.359 4.09375V37.0781H249.375ZM221.187 46.8594C219.161 46.9405 217.143 46.5543 215.29 45.7307C213.437 44.907 211.798 43.6679 210.5 42.1094V42.6719C210.5 44.4688 208.75 45.9219 206.953 45.9219C205.172 45.9219 203.422 44.4688 203.422 42.6719V4.10938C203.47 3.18708 203.858 2.31513 204.509 1.66062C205.161 1.00612 206.031 0.615099 206.953 0.5625C207.878 0.611375 208.752 1.00075 209.407 1.65562C210.062 2.3105 210.451 3.18454 210.5 4.10938V18.6875C211.811 17.1494 213.454 15.9285 215.306 15.1166C217.157 14.3047 219.168 13.923 221.187 14C229.312 14 236.406 20.6406 236.406 30.4062C236.406 40.2188 229.328 46.8594 221.187 46.8594ZM220.531 21.1875C215.781 21.1875 210.5 23.5938 210.5 30.6094C210.5 37.625 215.781 40.0312 220.531 40.0312C225.812 40.0312 229.938 36.4375 229.938 30.6094C229.995 29.3581 229.791 28.1085 229.339 26.9403C228.887 25.7721 228.197 24.711 227.312 23.8245C226.427 22.9381 225.367 22.2457 224.199 21.7917C223.032 21.3377 221.783 21.1319 220.531 21.1875ZM195.172 42.9688C195.117 43.8887 194.727 44.7569 194.077 45.41C193.427 46.0632 192.56 46.4563 191.641 46.5156C190.721 46.4563 189.854 46.0632 189.204 45.41C188.554 44.7569 188.165 43.8887 188.109 42.9688V28.0625C188.109 23.4844 185.047 20.9375 181.047 20.9375C175.969 20.9375 173.969 24.1719 173.969 31.125V42.9688C173.913 43.8887 173.524 44.7569 172.874 45.41C172.224 46.0632 171.357 46.4563 170.437 46.5156C169.518 46.4563 168.651 46.0632 168.001 45.41C167.351 44.7569 166.961 43.8887 166.906 42.9688V28.0625C166.906 23.4844 164.437 20.6094 160.437 20.6094C155.437 20.6094 152.766 24.1719 152.766 31.125V42.9688C152.71 43.8887 152.321 44.7569 151.671 45.41C151.021 46.0632 150.154 46.4563 149.234 46.5156C148.315 46.4563 147.448 46.0632 146.798 45.41C146.148 44.7569 145.758 43.8887 145.703 42.9688V18.2344C145.762 17.3172 146.153 16.4528 146.803 15.8029C147.453 15.1529 148.317 14.762 149.234 14.7031C150.152 14.762 151.016 15.1529 151.666 15.8029C152.316 16.4528 152.707 17.3172 152.766 18.2344C155.016 15.4844 157.687 14.0625 162.141 14.0625C166.562 14.0625 169.594 15.9219 171.594 19.5312C174.094 16.0469 177.719 14.1562 182.844 14.1562C189.281 14.1562 195.187 19.4219 195.187 26.7344V42.9844L195.172 42.9688ZM130.375 43.2812C127.766 46 126.094 46.875 120.437 46.875C112.937 46.875 108 42.0156 108 34.1875V18.2344C108.052 17.3148 108.441 16.4467 109.092 15.7954C109.744 15.1442 110.612 14.7554 111.531 14.7031C112.451 14.7554 113.319 15.1442 113.97 15.7954C114.621 16.4467 115.01 17.3148 115.062 18.2344V32.875C115.062 37.9531 117.437 40.625 121.937 40.625C125.687 40.625 128.75 40 130.375 35.4375C130.344 35.4375 130.375 32.3906 130.375 29.8125V18.2188C130.428 17.2967 130.819 16.4264 131.473 15.7748C132.128 15.1232 133 14.736 133.922 14.6875C134.841 14.7397 135.71 15.1286 136.361 15.7798C137.012 16.4311 137.401 17.2992 137.453 18.2188V43.25C137.453 45.0469 135.719 46.5 133.922 46.5C132.125 46.5 130.375 45.0469 130.375 43.25V43.2812ZM86.8906 46.875C84.8603 46.9567 82.8385 46.5693 80.9822 45.7428C79.126 44.9162 77.4852 43.6729 76.1875 42.1094V42.6719C76.1875 44.4688 74.4531 45.9219 72.6562 45.9219C70.8593 45.9219 69.125 44.4688 69.125 42.6719V4.10938C69.1735 3.18708 69.5607 2.31513 70.2123 1.66062C70.8639 1.00612 71.7341 0.615099 72.6562 0.5625C73.5783 0.615099 74.4485 1.00612 75.1002 1.66062C75.7518 2.31513 76.1389 3.18708 76.1875 4.10938V18.6875C77.5006 17.1473 79.1461 15.9251 81.0001 15.1131C82.8541 14.3012 84.8682 13.9206 86.8906 14C95.0156 14 102.109 20.6406 102.109 30.4062C102.109 40.2188 95.0156 46.8594 86.8906 46.8594V46.875ZM86.2343 21.1875C81.4687 21.1875 76.1875 23.5938 76.1875 30.6094C76.1875 37.625 81.4687 40.0312 86.2343 40.0312C91.5156 40.0312 95.625 36.4375 95.625 30.6094C95.6825 29.3595 95.4792 28.1113 95.0281 26.9442C94.5769 25.7771 93.8878 24.7167 93.0045 23.8305C92.1212 22.9443 91.0631 22.2516 89.8975 21.7966C88.732 21.3416 87.4844 21.1341 86.2343 21.1875ZM52.9531 22.4062C53.5625 23.4688 53.5625 24.7812 52.9531 25.8438L41.3125 45.9688C41.0115 46.4901 40.5788 46.9233 40.0578 47.2249C39.5368 47.5265 38.9457 47.6861 38.3437 47.6875H15.0625C14.4605 47.6861 13.8694 47.5265 13.3484 47.2249C12.8274 46.9233 12.3947 46.4901 12.0937 45.9688L0.468716 25.8438C0.167013 25.3212 0.00817871 24.7284 0.00817871 24.125C0.00817871 23.5216 0.167013 22.9288 0.468716 22.4062L12.0937 2.28125C12.3947 1.75989 12.8274 1.32672 13.3484 1.02509C13.8694 0.723456 14.4605 0.563939 15.0625 0.5625H38.3437C39.5625 0.5625 40.6875 1.21875 41.3125 2.28125L52.9531 22.4062ZM38.4531 27.0781C40.0625 27.0781 41.375 25.75 41.375 24.125C41.375 22.5 40.0625 21.1875 38.4531 21.1875H14.9687C14.1876 21.1875 13.4384 21.4978 12.8861 22.0502C12.3337 22.6025 12.0234 23.3517 12.0234 24.1328C12.0234 24.914 12.3337 25.6631 12.8861 26.2155C13.4384 26.7678 14.1876 27.0781 14.9687 27.0781H38.4375H38.4531ZM30.2656 37.0781C31.8593 37.0781 33.1562 35.7656 33.1562 34.1406C33.1562 32.5156 31.8593 31.1875 30.2656 31.1875H23.125C21.5312 31.1875 20.2343 32.5156 20.2343 34.1406C20.2343 35.7656 21.5312 37.0781 23.125 37.0781H30.25H30.2656ZM20.2343 11.1875C18.625 11.1875 17.3125 12.5 17.3125 14.125C17.3125 15.75 18.625 17.0781 20.2343 17.0781H33.1718C34.7812 17.0781 36.0937 15.75 36.0937 14.125C36.0937 12.5 34.7812 11.1875 33.1718 11.1875H20.2343Z" fill="#0F1A2E"/>
</svg>
