<svg width="41" height="38" viewBox="0 0 41 38" fill="none" xmlns="http://www.w3.org/2000/svg">
<path d="M3 16.1387V18.8622V16.1387Z" fill="#0F1A2E"/>
<path d="M3 16.1387V18.8622" stroke="#E9E9E9" stroke-width="5" stroke-linecap="round"/>
<path d="M37.9998 16.1387V18.8622V16.1387Z" fill="#0F1A2E"/>
<path d="M37.9998 16.1387V18.8622" stroke="#E9E9E9" stroke-width="5" stroke-linecap="round"/>
<path d="M11.7499 7.96826V16.8765V7.96826ZM11.7499 24.3096V27.0331V24.3096Z" fill="#0F1A2E"/>
<path d="M11.7499 24.3096V27.0331M11.7499 7.96826V16.8765V7.96826Z" stroke="#E9E9E9" stroke-width="5" stroke-linecap="round"/>
<path d="M29.2498 18.1243V27.0326V18.1243ZM29.2498 7.96729V10.6909V7.96729Z" fill="#0F1A2E"/>
<path d="M29.2498 7.96729V10.6909M29.2498 18.1243V27.0326V18.1243Z" stroke="#E9E9E9" stroke-width="5" stroke-linecap="round"/>
<path d="M20.4999 10.2377V24.7631V10.2377ZM20.4999 0V2.72357V0ZM20.4999 32.2764V35V32.2764Z" fill="#0F1A2E"/>
<path d="M20.4999 32.2764V35M20.4999 10.2377V24.7631V10.2377ZM20.4999 0V2.72357V0Z" stroke="#E9E9E9" stroke-width="5" stroke-linecap="round"/>
</svg>
