<svg width="178" height="60" viewBox="0 0 178 60" fill="none" xmlns="http://www.w3.org/2000/svg">
<path d="M75.4891 30.7695C75.4891 39.0978 68.9739 45.2348 60.9783 45.2348C52.9826 45.2348 46.4674 39.0978 46.4674 30.7695C46.4674 22.3826 52.9826 16.3043 60.9783 16.3043C68.9739 16.3043 75.4891 22.3826 75.4891 30.7695ZM69.137 30.7695C69.137 25.5652 65.3609 22.0043 60.9783 22.0043C56.5957 22.0043 52.8196 25.5652 52.8196 30.7695C52.8196 35.9217 56.5957 39.5348 60.9783 39.5348C65.3609 39.5348 69.137 35.9152 69.137 30.7695Z" fill="#0F1A2E"/>
<path d="M106.793 30.7695C106.793 39.0978 100.278 45.2348 92.2826 45.2348C84.2869 45.2348 77.7717 39.0978 77.7717 30.7695C77.7717 22.3891 84.2869 16.3043 92.2826 16.3043C100.278 16.3043 106.793 22.3826 106.793 30.7695ZM100.441 30.7695C100.441 25.5652 96.6652 22.0043 92.2826 22.0043C87.9 22.0043 84.1239 25.5652 84.1239 30.7695C84.1239 35.9217 87.9 39.5348 92.2826 39.5348C96.6652 39.5348 100.441 35.9152 100.441 30.7695Z" fill="#0F1A2E"/>
<path d="M136.793 17.1782V43.1478C136.793 53.8304 130.493 58.1935 123.046 58.1935C116.035 58.1935 111.815 53.5043 110.224 49.6695L115.754 47.3674C116.739 49.7217 119.152 52.5 123.039 52.5C127.807 52.5 130.761 49.5587 130.761 44.0217V41.9413H130.539C129.117 43.6956 126.378 45.2282 122.922 45.2282C115.689 45.2282 109.063 38.9282 109.063 30.8217C109.063 22.6565 115.689 16.3043 122.922 16.3043C126.372 16.3043 129.111 17.8369 130.539 19.5391H130.761V17.1848H136.793V17.1782ZM131.211 30.8217C131.211 25.7282 127.813 22.0043 123.489 22.0043C119.107 22.0043 115.435 25.7282 115.435 30.8217C115.435 35.863 119.107 39.5348 123.489 39.5348C127.813 39.5348 131.211 35.863 131.211 30.8217Z" fill="#0F1A2E"/>
<path d="M146.739 1.95654V44.3479H140.543V1.95654H146.739Z" fill="#0F1A2E"/>
<path d="M170.883 35.5305L175.813 38.8174C174.222 41.1718 170.387 45.2283 163.761 45.2283C155.543 45.2283 149.407 38.8761 149.407 30.7631C149.407 22.1609 155.596 16.2979 163.05 16.2979C170.557 16.2979 174.228 22.2718 175.428 25.5L176.087 27.1435L156.75 35.1522C158.23 38.0544 160.533 39.5348 163.761 39.5348C166.996 39.5348 169.239 37.9435 170.883 35.5305ZM155.707 30.3261L168.633 24.9587C167.922 23.1522 165.783 21.8935 163.265 21.8935C160.037 21.8935 155.543 24.7435 155.707 30.3261Z" fill="#0F1A2E"/>
<path d="M23.0152 27.0065V20.8696H43.6956C43.8978 21.9391 44.0022 23.2043 44.0022 24.5739C44.0022 29.1783 42.7435 34.8717 38.687 38.9283C34.7413 43.037 29.7 45.2283 23.0217 45.2283C10.6435 45.2283 0.234779 35.1456 0.234779 22.7674C0.234779 10.3891 10.6435 0.306519 23.0217 0.306519C29.8696 0.306519 34.7478 2.99348 38.413 6.49565L34.0826 10.8261C31.4543 8.36087 27.8935 6.44348 23.0152 6.44348C13.9761 6.44348 6.90652 13.7283 6.90652 22.7674C6.90652 31.8065 13.9761 39.0913 23.0152 39.0913C28.8783 39.0913 32.2174 36.737 34.3565 34.5978C36.0913 32.863 37.2326 30.3848 37.6826 27L23.0152 27.0065Z" fill="#0F1A2E"/>
</svg>
