<svg width="312" height="60" viewBox="0 0 312 60" fill="none" xmlns="http://www.w3.org/2000/svg">
<path d="M135.474 20.0789C126.947 20.0789 122.132 27.0789 122.132 34.6315C122.132 38 122.868 49.1578 137.237 49.1578C141.474 49.1578 144.342 48.0263 146.447 46.8684C146.447 45.1315 146.447 40.5526 146.447 40.5526C146.447 40.5526 143 43.2631 137.974 43.2631C132.368 43.2631 129.605 40.1052 129.158 36.6842H147.816C147.816 36.6842 147.816 35.2368 147.816 33.1052C147.816 31 147.868 20.0789 135.474 20.0789ZM129.184 31.1315C129.579 28.6842 131.421 25.921 135.789 25.921C139.526 25.921 140.947 28.4736 141.263 31.1315H129.184Z" fill="#0F1A2E"/>
<path d="M172.526 30.4737C172.526 20.5264 165.395 20.0527 161.842 20.0527C156.5 20.0527 151.79 22.3422 151.79 22.3422V28.6316C151.79 28.6316 156 25.8948 160.132 25.8948C165.447 25.8948 165.658 28.7106 165.658 32C156 31.6316 150.079 33.6053 150.079 40.7895C150.079 47.9474 157.395 49.1579 162.842 49.1579C167 49.1579 172.579 48.1316 172.579 48.1316C172.579 48.1316 172.526 39.6053 172.526 30.4737ZM165.553 43.3685C165.553 43.3685 157.026 45.0264 157.026 40.2369C157.026 36.1843 163.395 36.7106 165.553 36.8421V43.3685Z" fill="#0F1A2E"/>
<path d="M187.447 43.3158C184.263 43.3158 183.421 41.6316 183.421 39.1053C183.421 39.1053 183.421 32.4474 183.421 26.5263H191.21V20.6579H183.421C183.421 18.0263 183.421 15.6579 183.421 13.8421H176.447V38.1316C176.447 42.2632 176.079 49.1842 185.632 49.1842C190.105 49.1842 192.263 47.8421 192.263 47.8421L192.289 41.8158C192.316 41.8158 189.684 43.3158 187.447 43.3158Z" fill="#0F1A2E"/>
<path d="M117.316 20.1842V13.1053C117.316 13.1053 113.132 10.8158 106.342 10.8158C99.5526 10.8158 92.8684 13.8684 92.8684 21.5526C92.8684 27.8684 97.1842 30.0789 100.763 31.3684C104.368 32.6579 107.632 33.8684 109.368 34.7895C111.105 35.7105 112.184 36.6316 112.184 38.7631C112.184 40.8684 110.974 42.9737 105.079 42.9737C99.1842 42.9737 93.3158 39.0789 93.3158 39.0789V46.2105C93.3158 46.2105 97.8947 49.2105 105.079 49.2105C112.263 49.2105 119.447 46.5 119.447 38.2105C119.447 31.1842 113.105 28.6579 111.263 27.8947C109.737 27.1842 104.053 25.2632 103.026 24.7368C101.553 23.9737 99.921 23.1316 100.079 20.8421C100.237 18.7105 101.842 17 106 17C111.974 17 117.316 20.1842 117.316 20.1842Z" fill="#0F1A2E"/>
<path d="M293.447 48.5526V11.3158H286.474V48.5526H293.447Z" fill="#0F1A2E"/>
<path d="M303.816 48.5527L292.737 33.4737L303.579 20.7106H311.71L300.632 33.4737L311.974 48.5527H303.816Z" fill="#0F1A2E"/>
<path d="M241.658 20.0789C233.132 20.0789 228.316 27.0789 228.316 34.6315C228.316 38 229.053 49.1578 243.421 49.1578C247.658 49.1578 250.526 48.0263 252.632 46.8684C252.632 45.1315 252.632 40.5526 252.632 40.5526C252.632 40.5526 249.184 43.2631 244.158 43.2631C238.553 43.2631 235.789 40.1052 235.342 36.6842H254C254 36.6842 254 35.2368 254 33.1052C254 31 254.053 20.0789 241.658 20.0789ZM235.368 31.1315C235.763 28.6842 237.605 25.921 241.974 25.921C245.711 25.921 247.132 28.4736 247.447 31.1315H235.368Z" fill="#0F1A2E"/>
<path d="M270.447 20.0789C261.921 20.0789 257.105 27.0789 257.105 34.6315C257.105 38 257.842 49.1578 272.21 49.1578C276.447 49.1578 279.316 48.0263 281.421 46.8684C281.421 45.1315 281.421 40.5526 281.421 40.5526C281.421 40.5526 277.974 43.2631 272.947 43.2631C267.342 43.2631 264.579 40.1052 264.132 36.6842H282.763C282.763 36.6842 282.763 35.2368 282.763 33.1052C282.763 31 282.816 20.0789 270.447 20.0789ZM264.132 31.1315C264.526 28.6842 266.368 25.921 270.737 25.921C274.474 25.921 275.895 28.4736 276.21 31.1315H264.132Z" fill="#0F1A2E"/>
<path d="M223.684 20.1842V13.1053C223.684 13.1053 220.184 10.8158 212.868 10.8158C203.132 10.8158 193.974 17.8684 193.974 30.3421C193.974 42.2895 201.553 49.1842 213 49.1842C220.895 49.1842 224.553 46.921 224.553 46.921V31.5526C224.553 29.6842 223.026 28.1579 221.158 28.1579H210.053V34.3684H217.579V42.3421C217.579 42.3421 215.684 43 212.789 43C205.184 43 201.237 37.1316 201.237 30.3947C201.237 23.2368 205.737 17.0526 213.026 17.0526C218.237 17 220.816 18.4211 223.684 20.1842Z" fill="#0F1A2E"/>
<path d="M13.5 6.47368C13.5 6.47368 23.3684 0 39.3421 0C55.3158 0 65.1842 6.47368 65.1842 6.47368L58.7105 40.7895H19.9474L13.5 6.47368Z" fill="#0F1A2E"/>
<path d="M13.5 48.3684C13.5 48.3684 23.5526 52.9736 39.3421 52.9736C55.1316 52.9736 65.1842 48.3684 65.1842 48.3684V55.6842C65.1842 55.6842 54.9474 60 39.3421 60C23.7368 60 13.5 55.6842 13.5 55.6842V48.3684Z" fill="#0F1A2E"/>
<path d="M12.9211 43.6315V31.421C12.9211 29.4473 11.3158 27.8421 9.3421 27.8421H0V34.3158H6.02631V43.6579H12.9211V43.6315Z" fill="#0F1A2E"/>
<path d="M65.7632 43.6315V31.421C65.7632 29.4473 67.3684 27.8421 69.3421 27.8421H78.6842V34.3158H72.6579V43.6579H65.7632V43.6315Z" fill="#0F1A2E"/>
</svg>
