<svg width="35" height="35" viewBox="0 0 35 35" fill="none" xmlns="http://www.w3.org/2000/svg">
<path fill-rule="evenodd" clip-rule="evenodd" d="M0 17.4997C0 7.83497 7.83518 0 17.4999 0C27.165 0 35 7.83497 35 17.4997C35 27.1655 27.165 35 17.4999 35C7.83518 35 0 27.1655 0 17.4997ZM7.52109 13.4904C12.9061 11.856 22.2107 12.164 27.8517 15.5141C28.6276 15.9759 29.633 15.7195 30.0944 14.9417C30.5554 14.1652 30.3004 13.1606 29.5224 12.6988C23.0284 8.84391 12.7525 8.48155 6.57069 10.3579C5.70534 10.6208 5.21781 11.5346 5.47986 12.4C5.7417 13.2647 6.65616 13.7529 7.52109 13.4904ZM25.7902 20.9251C26.4315 21.3195 27.2712 21.118 27.667 20.4758C28.0613 19.8351 27.8594 18.9951 27.2181 18.6001C21.8166 15.2806 13.9152 14.3465 7.55933 16.2753C6.83901 16.4947 6.43214 17.2554 6.64947 17.9767C6.86868 18.6971 7.6308 19.1037 8.35217 18.8858C13.916 17.1969 21.0875 18.0344 25.7902 20.9251ZM25.5257 25.241C25.2112 25.7568 24.5397 25.9183 24.0259 25.604C19.9164 23.0924 14.744 22.5252 8.65246 23.9166C8.06546 24.0511 7.48034 23.6834 7.3466 23.0966C7.21202 22.5096 7.57856 21.9244 8.16682 21.7905C14.833 20.2667 20.5511 20.9224 25.1637 23.741C25.678 24.0551 25.8399 24.727 25.5257 25.241Z" fill="#E9E9E9"/>
</svg>
