<svg width="96" height="100" viewBox="0 0 96 100" fill="none" xmlns="http://www.w3.org/2000/svg">
<g clip-path="url(#clip0)">
<path d="M7.69476 49.3691L7.93975 49.5732C7.67434 47.7357 7.53143 45.7349 8.06225 43.9791C8.85849 41.1617 9.8589 38.4259 10.3693 35.5063C10.7776 33.2401 11.2472 30.6881 10.9818 28.5035C10.6756 29.6876 10.3693 30.8514 9.71598 31.8722C7.2456 35.6901 4.71396 40.1817 6.44936 45.0408C6.40853 45.102 6.34728 45.1633 6.28603 45.1224C5.59187 43.5096 5.42854 41.6925 4.97938 39.9775C3.77481 35.4247 0.283607 31.6068 1.30443 26.3394C0.753184 27.4827 0.54902 28.7689 0.263191 30.0143C-0.349301 33.2401 0.263191 36.6496 1.1411 39.6304C2.22316 43.3258 5.83687 45.9799 7.69476 49.3691Z" fill="#0F1A2E"/>
<path d="M6.75563 25.7269C7.57228 24.0527 8.89935 22.4602 10.4918 21.2761C14.0034 18.622 17.8417 15.192 17.903 10.7004C16.7188 13.9262 13.1868 15.2737 10.8389 17.4786C9.5935 18.6424 8.63393 20.0511 8.08269 21.5211L8.00103 21.4598C8.28686 20.1532 8.8381 18.9895 9.22601 17.7236C10.2468 14.2937 10.0631 10.19 13.4114 7.88293C11.6964 8.3321 10.2468 9.43458 8.9606 10.8637C6.24522 13.8649 6.49021 18.2953 6.83729 22.2152C6.95979 23.4402 6.89854 24.4815 6.75563 25.7269Z" fill="#0F1A2E"/>
<path d="M10.8389 15.9474C12.7172 14.1916 14.8813 12.885 16.4738 10.8025C18.3725 8.29129 20.0262 5.47383 22.517 3.30969C19.1483 4.61634 15.5142 5.96382 13.3297 9.43461C12.0434 11.4558 11.8393 13.8446 10.8389 15.9474Z" fill="#0F1A2E"/>
<path d="M12.2477 24.8285C13.0643 23.1748 13.5747 21.2965 13.7993 19.4794C13.4931 20.2552 13.0235 20.9698 12.3702 21.5823C9.63436 24.1752 6.42898 26.7068 5.81649 30.3818C5.73483 30.9126 5.67358 31.4434 5.53066 31.9538C5.40816 32.0151 5.40816 31.8722 5.36733 31.8313L5.71441 27.2989C6.04107 22.8685 3.7136 17.9482 6.26565 14.0487C6.18399 14.0282 6.12274 14.1099 6.06149 14.1303C3.73402 17.0907 2.18237 20.3573 2.18237 24.3385C2.18237 29.2589 5.02025 32.7092 5.36733 37.3233C6.10232 32.5051 10.1448 29.0751 12.2477 24.8285Z" fill="#0F1A2E"/>
<path d="M6.83728 55.0653C9.471 57.1478 12.6151 58.7607 15.0243 60.5981C14.5547 59.3936 13.7789 58.2911 13.4726 57.0457C12.0639 51.3495 12.8397 44.7346 10.4102 39.4672C10.8593 42.4684 9.67516 45.1225 9.40975 47.9808C9.18517 50.3287 9.59349 52.6153 10.5122 54.5753C10.7776 55.1674 11.2676 55.6778 11.4106 56.2903C10.5326 55.494 9.89974 54.4936 9.30766 53.5136C6.46979 48.9199 0.528615 45.9392 0.120287 40.3451C-0.0838767 42.8359 0.140704 45.4696 0.957359 47.6746C2.08026 50.6962 4.28523 53.0441 6.83728 55.0653Z" fill="#0F1A2E"/>
<path d="M42.6476 70.153C38.0539 70.153 33.9298 72.3783 29.9078 74.0525C26.2532 75.5633 21.4145 75.2775 18.1683 73.0317C19.7608 75.0325 21.9045 76.2779 24.1299 77.1149C28.2336 78.7483 33.0315 77.5029 36.5431 75.2571C39.0543 73.6442 41.2184 71.3575 44.2197 71.3575C49.0583 71.3575 54.142 76.3187 58.4907 80.8103C59.1645 80.2591 59.879 79.6874 60.4303 79.0545C55.8774 74.7262 49.4462 70.153 42.6476 70.153Z" fill="#0F1A2E"/>
<path d="M34.4402 70.643C35.1548 70.4593 36.0122 70.5205 36.6656 70.2755C33.9298 69.7243 31.2961 68.8872 29.1728 66.9477C26.1307 64.171 23.4358 61.2106 20.1895 59.0465C22.7416 62.4765 23.4562 67.4581 28.1111 69.1935C28.9278 69.4997 29.8873 69.561 30.6019 70.0101C29.7036 70.153 28.9278 69.8672 28.0907 69.6835C22.0883 68.3972 14.7792 70.0509 10.2876 64.9468C11.9822 68.2951 15.4938 70.9289 18.8829 72.0313C24.0891 73.7872 29.5403 71.8476 34.4402 70.643Z" fill="#0F1A2E"/>
<path d="M24.3953 68.1317C20.4958 64.9876 19.9037 60.2714 18.1683 56.1473C17.0862 53.5748 15.3304 51.2678 13.4521 49.022C15.5142 53.1461 14.6159 58.4543 17.2904 62.3334C18.1275 63.5584 19.2912 64.7222 20.3733 65.6817L20.3325 65.743C19.3525 65.2938 18.4746 64.5997 17.5762 63.8647C12.9009 59.9651 5.85723 59.4752 3.06018 53.1257C3.81559 57.7806 7.51096 61.9047 11.5126 64.518C15.31 67.0088 20.1895 66.7434 24.3953 68.1317Z" fill="#0F1A2E"/>
<path d="M78.7234 10.8025C80.3159 12.9054 82.48 14.1916 84.3583 15.9474C83.3579 13.8446 83.1538 11.4558 81.8879 9.43461C79.7034 5.96382 76.0693 4.61634 72.7006 3.30969C75.1505 5.47383 76.8043 8.27088 78.7234 10.8025Z" fill="#0F1A2E"/>
<path d="M85.9713 17.7236C86.3388 18.969 86.89 20.1532 87.1962 21.4598L87.1146 21.5211C86.5633 20.0511 85.6038 18.6424 84.3584 17.4786C82.0105 15.2533 78.4784 13.9262 77.3147 10.68C77.3759 15.192 81.2142 18.622 84.7259 21.2557C86.2979 22.4398 87.6454 24.0323 88.4621 25.7064C88.3191 24.461 88.2579 23.4198 88.3804 22.2152C88.7479 18.2749 88.9725 13.8649 86.2775 10.8637C84.9913 9.43458 83.5417 8.31168 81.8267 7.88293C85.1342 10.19 84.9504 14.2937 85.9713 17.7236Z" fill="#0F1A2E"/>
<path d="M89.4828 27.2784L89.8299 31.8109C89.7891 31.8517 89.7891 31.9742 89.6666 31.9334C89.5237 31.423 89.4624 30.8921 89.3808 30.3613C88.7683 26.7068 85.5425 24.1547 82.8271 21.5618C82.1738 20.9494 81.7042 20.2348 81.3979 19.459C81.6225 21.276 82.1329 23.1543 82.9496 24.8081C85.0525 29.0547 89.0949 32.4846 89.8299 37.3233C90.177 32.6888 93.0149 29.2588 93.0149 24.3385C93.0149 20.3573 91.4632 17.0907 89.1358 14.1303C89.0745 14.0894 89.0133 14.0282 88.9316 14.0486C91.4836 17.9481 89.1358 22.8685 89.4828 27.2784Z" fill="#0F1A2E"/>
<path d="M90.2179 39.9571C89.7688 41.6721 89.6054 43.5096 88.9113 45.1021C88.85 45.1429 88.7888 45.0612 88.7479 45.0204C90.4833 40.1613 87.9517 35.6901 85.4813 31.8518C84.828 30.8514 84.5217 29.6673 84.2155 28.4831C83.9501 30.6881 84.4197 33.2197 84.828 35.486C85.3588 38.4055 86.3388 41.1413 87.135 43.9588C87.6659 45.7146 87.5229 47.695 87.2575 49.5529L87.5025 49.3487C89.34 45.9596 92.9741 43.3054 94.0766 39.5897C94.9545 36.6293 95.567 33.1993 94.9545 29.9735C94.6687 28.7281 94.4441 27.4419 93.9133 26.2986C94.9137 31.5864 91.4225 35.4043 90.2179 39.9571Z" fill="#0F1A2E"/>
<path d="M65.269 74.0525C61.2266 72.3783 57.1229 70.153 52.5292 70.153C45.751 70.153 39.2994 74.7466 34.7874 79.0545C35.3386 79.6874 36.0532 80.2795 36.7269 80.8103C41.0552 76.3391 46.1593 71.3575 50.998 71.3575C53.9992 71.3575 56.1633 73.6442 58.6745 75.2571C62.1657 77.4824 66.9636 78.7483 71.0877 77.1149C73.2927 76.2779 75.4364 75.0325 77.0493 73.0317C73.7827 75.2571 68.9236 75.5633 65.269 74.0525Z" fill="#0F1A2E"/>
<path d="M85.9099 53.4728C85.2975 54.4527 84.685 55.4736 83.8071 56.2494C83.95 55.6573 84.44 55.1265 84.7054 54.5344C85.6241 52.554 86.0324 50.2878 85.8079 47.9399C85.522 45.0816 84.3379 42.4275 84.8075 39.4263C82.3575 44.6937 83.1537 51.3086 81.745 57.0048C81.4388 58.2706 80.6629 59.3731 80.1934 60.5573C82.6025 58.7198 85.7466 57.1069 88.3803 55.0244C90.9324 53.0236 93.1374 50.6553 94.3011 47.5928C95.1382 45.3879 95.3423 42.7541 95.1382 40.2633C94.7094 45.8983 88.7478 48.8791 85.9099 53.4728Z" fill="#0F1A2E"/>
<path d="M77.5802 63.8647C76.6819 64.5997 75.804 65.2938 74.824 65.743L74.7831 65.6817C75.8652 64.7017 77.0289 63.538 77.866 62.3334C80.5406 58.4543 79.6422 53.1257 81.7043 49.022C79.826 51.2678 78.0702 53.5748 76.9881 56.1473C75.2527 60.2714 74.6606 64.9876 70.7611 68.1317C74.9669 66.7434 79.8464 67.0088 83.6234 64.5384C87.6046 61.9251 91.3 57.801 92.0758 53.1461C89.2992 59.4752 82.2759 59.9651 77.5802 63.8647Z" fill="#0F1A2E"/>
<path d="M67.1065 69.7038C66.2694 69.8876 65.4936 70.153 64.5953 70.0305C65.3099 69.5813 66.249 69.5201 67.0861 69.2138C71.741 67.458 72.4556 62.4764 75.0076 59.0669C71.7614 61.231 69.0665 64.1914 66.0244 66.968C63.9011 68.9076 61.2674 69.7242 58.5316 70.2959C59.1849 70.5409 60.0424 70.4797 60.757 70.6634C65.6774 71.8884 71.1081 73.8075 76.3347 72.0721C79.7034 70.9492 83.215 68.3155 84.93 64.9876C80.418 70.0713 73.0885 68.438 67.1065 69.7038Z" fill="#0F1A2E"/>
<path d="M47.5884 0.00219727C29.0095 0.00219727 13.9014 15.1103 13.9014 33.6893C13.9014 52.2682 29.0095 67.3763 47.5884 67.3763C66.1673 67.3763 81.2755 52.2682 81.2755 33.6893C81.2755 15.1103 66.1673 0.00219727 47.5884 0.00219727ZM47.5884 40.1204C44.036 40.1204 41.1572 37.2417 41.1572 33.6893C41.1572 30.1368 44.036 27.2581 47.5884 27.2581C51.1409 27.2581 54.0196 30.1368 54.0196 33.6893C54.0196 37.2417 51.1409 40.1204 47.5884 40.1204ZM52.4271 28.2789C51.2429 27.2173 49.7117 26.5435 48.0172 26.4414V20.929C51.2225 21.0311 54.1421 22.3173 56.3266 24.3794L52.4271 28.2789ZM47.1801 26.4414C45.4855 26.5435 43.9543 27.2173 42.7701 28.2789L38.8706 24.3794C41.0552 22.3173 43.9747 21.0311 47.1801 20.929V26.4414ZM42.1985 28.871C41.1368 30.0551 40.4631 31.5864 40.361 33.2809H34.8486C34.9507 30.0756 36.2369 27.156 38.299 24.9715L42.1985 28.871ZM40.361 34.0976C40.4631 35.7921 41.1368 37.3234 42.1985 38.5075L38.299 42.4071C36.2369 40.2225 34.9507 37.303 34.8486 34.0976H40.361ZM42.7701 39.0996C43.9543 40.1613 45.4855 40.835 47.1801 40.9371V46.4495C43.9747 46.3474 41.0552 45.0612 38.8706 42.9991L42.7701 39.0996ZM47.9967 40.9167C49.6913 40.8146 51.2225 40.1408 52.4067 39.0792L56.3062 42.9787C54.1217 45.0408 51.2021 46.327 47.9967 46.4291V40.9167ZM52.9988 38.5075C54.0604 37.3234 54.7341 35.7921 54.8362 34.0976H60.3487C60.2466 37.303 58.9603 40.2225 56.8983 42.4071L52.9988 38.5075ZM54.8362 33.2809C54.7341 31.5864 54.0604 30.0551 52.9988 28.871L56.8983 24.9715C58.9603 27.156 60.2466 30.0756 60.3487 33.2809H54.8362ZM56.8983 23.8077C54.5504 21.6027 51.4471 20.2144 47.9967 20.1123V13.9874C53.1213 14.0895 57.7762 16.172 61.2266 19.4794L56.8983 23.8077ZM47.1801 20.1123C43.7501 20.2144 40.6264 21.6027 38.2785 23.8077L33.9503 19.4794C37.4006 16.172 42.0556 14.0895 47.1801 13.9874V20.1123ZM37.7069 24.3794C35.5019 26.7273 34.1136 29.8306 34.0115 33.2809H27.8866C27.9887 28.1564 30.0711 23.5015 33.3786 20.0511L37.7069 24.3794ZM34.0319 34.0976C34.134 37.5275 35.5223 40.6512 37.7273 42.9991L33.3786 47.3274C30.0711 43.877 27.9887 39.2221 27.8866 34.0976H34.0319ZM38.299 43.5708C40.6468 45.7758 43.7501 47.1641 47.2005 47.2662V53.3911C42.076 53.289 37.421 51.2065 33.9707 47.8991L38.299 43.5708ZM47.9967 47.2457C51.4267 47.1437 54.5504 45.7553 56.8983 43.5504L61.2266 47.8786C57.7762 51.1861 53.1213 53.2686 47.9967 53.3707V47.2457ZM57.4699 42.9787C59.6749 40.6308 61.0632 37.5275 61.1653 34.0772H67.2902C67.1881 39.2017 65.1057 43.8566 61.7982 47.307L57.4699 42.9787ZM61.1653 33.2809C61.0632 29.851 59.6749 26.7273 57.4699 24.3794L61.7982 20.0511C65.1057 23.5015 67.1881 28.1564 67.2902 33.2809H61.1653ZM61.7982 18.9078C58.2049 15.4574 53.3458 13.2933 47.9967 13.1912V7.76043C54.8362 7.86251 61.0428 10.6391 65.6161 15.0695L61.7982 18.9078ZM47.1801 13.1708C41.831 13.2729 36.9719 15.437 33.3786 18.8874L29.5607 15.0695C34.134 10.6391 40.3406 7.86251 47.1801 7.76043V13.1708ZM32.8069 19.4794C29.3566 23.0727 27.1924 27.9318 27.0904 33.2809H21.68C21.7821 26.4414 24.5587 20.2348 28.9891 15.6616L32.8069 19.4794ZM27.0904 34.0976C27.1924 39.4467 29.3566 44.3058 32.8069 47.8991L28.9891 51.7169C24.5587 47.1437 21.7821 40.9371 21.68 34.0976H27.0904ZM33.3786 48.4707C36.9719 51.9211 41.831 54.0852 47.1801 54.1873V59.5977C40.3406 59.4956 34.134 56.7189 29.5607 52.2886L33.3786 48.4707ZM47.9967 54.2077C53.3458 54.1056 58.2049 51.9415 61.7982 48.4911L65.6161 52.309C61.0428 56.7394 54.8362 59.516 47.9967 59.6181V54.2077ZM62.3903 47.8991C65.8407 44.3058 68.0048 39.4467 68.1069 34.0976H73.5172C73.4151 40.9371 70.6385 47.1437 66.2082 51.7169L62.3903 47.8991ZM68.1069 33.2809C68.0048 27.9318 65.8407 23.0727 62.3903 19.4794L66.2082 15.6616C70.6385 20.2348 73.4151 26.4414 73.5172 33.2809H68.1069ZM66.2082 14.4978C61.4716 9.90415 55.0812 7.04585 47.9967 6.94377V0.818853C56.7554 0.920935 64.6973 4.47339 70.5364 10.1696L66.2082 14.4978ZM47.1801 6.94377C40.116 7.04585 33.7053 9.90415 28.9687 14.4978L24.6608 10.1696C30.4999 4.47339 38.4419 0.920935 47.2005 0.818853V6.94377H47.1801ZM28.397 15.0695C23.8033 19.8061 20.945 26.1964 20.8429 33.2809H14.718C14.8201 24.5223 18.3726 16.5803 24.0687 10.7412L28.397 15.0695ZM20.8634 34.0976C20.9654 41.1617 23.8237 47.5724 28.4174 52.309L24.0687 56.6169C18.3726 50.7982 14.8405 42.8562 14.7384 34.0976H20.8634ZM28.9891 52.8807C33.7257 57.4744 40.116 60.3326 47.2005 60.4347V66.5597C38.4419 66.4576 30.4999 62.9051 24.6608 57.2089L28.9891 52.8807ZM47.9967 60.4347C55.0608 60.3326 61.4716 57.4744 66.2082 52.8807L70.5364 57.2089C64.6973 62.9051 56.7554 66.4576 47.9967 66.5597V60.4347ZM66.7798 52.2886C71.3735 47.552 74.2318 41.1617 74.3339 34.0772H80.4588C80.3567 42.8358 76.8043 50.7778 71.1081 56.6169L66.7798 52.2886ZM74.3339 33.2809C74.2318 26.2169 71.3735 19.8061 66.7798 15.0695L71.1081 10.7412C76.8043 16.5803 80.3567 24.5223 80.4588 33.2809H74.3339Z" fill="#0F1A2E"/>
<path d="M49.528 25.8901L49.3239 25.9106V26.1556L49.528 26.1351V25.8901Z" fill="#0F1A2E"/>
<path d="M49.283 25.5635H49.0176V25.7676H49.283V25.5635Z" fill="#0F1A2E"/>
<path d="M48.5276 25.5023L48.7726 25.5431L48.793 25.3389L48.548 25.2981L48.5276 25.5023Z" fill="#0F1A2E"/>
<path d="M48.3234 25.4206L48.0989 25.4002L48.1193 25.196L48.3643 25.2165L48.3234 25.4206Z" fill="#0F1A2E"/>
<path d="M46.6288 25.1552H46.3634V25.3593H46.6288V25.1552Z" fill="#0F1A2E"/>
<path d="M45.7714 25.5634L46.0164 25.6042L46.0368 25.4001L45.8122 25.3593L45.7714 25.5634Z" fill="#0F1A2E"/>
<path d="M45.8122 25.8902L45.5264 25.8085L45.5876 25.6044L45.853 25.686L45.8122 25.8902Z" fill="#0F1A2E"/>
<path d="M45.3222 26.1351L45.2814 25.931L45.4855 25.8901L45.5264 26.0943L45.3222 26.1351Z" fill="#0F1A2E"/>
<path d="M18.6789 47.2661V47.7153H18.883L18.8422 47.2049L18.5768 47.1028V46.9191H18.4135V47.2661H18.6789Z" fill="#0F1A2E"/>
<path d="M20.1079 48.5115L20.6183 48.7565L20.7817 49.2261L21.0266 49.4098L21.2512 49.9202L21.1287 50.1652L20.7408 49.8181L20.4754 49.4302L20.3325 49.124L20.1079 48.5115Z" fill="#0F1A2E"/>
<path d="M28.6828 59.1076L28.8665 59.5567L28.6215 59.6997L28.4786 59.4955L28.1519 59.3934L28.1111 59.0872L27.8457 58.6788L28.254 58.7401L28.6828 59.1076Z" fill="#0F1A2E"/>
<path d="M46.5472 28.1156H46.1797L46.1184 27.3602L46.3226 27.2173V26.8294H45.1384L45.0976 26.4415L45.2609 26.3394L44.9955 26.2373L44.7914 26.5027L44.7301 26.809L44.383 26.8702V27.0335H44.138V27.4827L43.1785 28.2789L41.2797 28.2177C41.1368 28.5239 40.8102 28.1769 40.8102 28.1769C40.7489 27.9727 40.2589 28.1769 40.2589 28.1769C40.2589 28.5648 39.6056 28.0135 39.6056 28.0135L38.4214 27.156C37.7477 26.5436 36.7269 27.3194 36.6861 27.5031C36.7269 27.9931 35.9102 27.6052 35.9102 27.6052C35.9102 27.6052 35.2365 27.401 35.1344 27.6665C35.0323 27.9319 34.5832 27.8706 34.5832 27.8706L34.5219 28.0135L34.1748 28.0748L34.1136 28.2789L33.7053 28.3402L34.7261 28.2994C34.9915 28.2585 34.624 28.8914 34.4607 28.8506L33.9911 28.8914L33.8278 29.0548H33.3786L33.1744 29.3406L32.5211 29.2998C32.5211 29.2998 32.1536 29.606 32.174 29.7081C32.2149 29.8102 32.1128 30.1164 32.0107 30.1164C31.9086 30.1164 31.7045 30.4227 31.7657 30.5247C31.827 30.6268 31.5615 30.9739 31.5615 30.9739L31.5003 31.321L31.2961 31.3822V32.3214L30.8878 32.6072V33.0155L30.2753 33.6689L30.3366 34.2201L29.8261 34.7714L29.8874 35.3226L29.5811 35.4247L29.5199 35.6697L29.377 36.3843L29.7241 36.4251C29.8874 36.3638 29.867 36.8742 29.7241 36.9355C29.5811 36.9967 29.2137 37.1397 29.4178 37.2826C29.622 37.4255 28.8666 37.3847 28.8666 37.1805C28.8666 36.9763 28.4582 36.7926 28.3562 36.8742C28.2541 36.9355 28.0907 36.568 28.0907 36.568C27.7233 36.1801 26.5595 36.6088 26.5595 36.6088L26.3962 37.1601C26.0287 37.2213 25.7837 37.8542 25.7837 37.8542C25.4775 37.9563 25.2325 38.3442 25.3345 38.4463C25.4366 38.5484 25.1712 38.5892 25.1712 38.5892V39.3446L25.0079 39.5896L25.0487 40.4063C25.2529 40.4063 25.212 40.7942 25.212 40.7942C24.865 40.835 24.9466 41.2842 24.9466 41.2842L24.2321 41.5292L24.0891 41.7333L23.2112 41.6925L22.9662 41.9375L22.7212 41.6925H21.0267L20.9654 41.5292L20.6183 41.4679L20.5775 41.08L20.0671 41.1209L19.965 41.325L19.4138 41.3659C19.4546 41.7129 18.8625 42.2233 18.8013 42.0804C18.74 41.9375 18.3521 41.57 18.5359 41.4883C18.6992 41.4271 19.1484 41.3454 19.1484 41.3454V41.1004L17.8826 41.0596L17.7396 41.2638L17.2292 41.3046V41.8558L16.9842 41.9171C16.8209 42.0192 17.0251 42.4071 17.0251 42.4071C17.2701 42.6521 16.9842 43.0196 16.9842 43.0196C16.7801 43.2237 17.1476 43.6117 17.1476 43.6117C17.413 43.6729 16.9842 43.8771 16.9842 43.8771C17.0455 44.2241 17.2496 44.3262 17.2496 44.3262C17.0455 44.6733 17.3926 44.8366 17.3926 44.8366L17.4334 45.4287L17.6784 45.5716V45.9595L17.8213 46.2045H18.3725L18.3317 45.347C17.8621 44.7958 18.74 44.6529 18.7809 44.8571C18.8217 45.0612 19.1892 45.1633 19.1892 45.1633C19.2505 45.6737 19.8425 45.98 20.0059 45.4695C20.1692 44.9591 20.3121 45.2654 20.4142 45.5104C20.5163 45.7554 21.1696 46.3475 21.1696 46.3475H21.68L21.7413 46.8374C22.3129 46.7966 22.4967 46.8783 22.7212 47.6541C22.9662 48.4503 23.5991 48.6545 23.5991 48.6545L24.0687 48.6137C24.0687 48.2053 24.5383 48.6749 24.5383 48.8995C24.5383 49.1037 25.457 49.8999 25.457 49.8999L26.3758 50.1041L27.2333 50.7982L27.8866 50.737H28.152C28.3153 50.1449 29.132 50.7778 29.2137 50.982C29.2749 51.1861 29.8261 51.5332 29.8874 51.3699C29.9486 51.2066 30.3366 51.3086 30.3978 51.819C30.4591 52.3295 30.704 52.2274 30.704 52.2274L32.6436 52.1865L33.3173 51.5945L35.0527 51.5536C35.9306 51.5128 35.3998 50.3082 35.2161 50.3082C34.9098 50.0632 35.3182 49.0628 35.3182 49.0628L32.8478 46.7558C32.2761 46.7558 32.7865 45.9187 32.7865 45.9187C33.2357 45.6329 32.6844 45.2041 32.6844 45.2041C32.7457 44.7958 32.4394 44.3058 32.4394 44.3058C31.827 43.8975 31.9903 43.1012 31.9903 43.1012V42.55C31.4799 42.06 32.1944 41.9988 32.1944 41.9988C32.4394 41.5904 32.0311 41.2842 32.0311 41.2842L31.9903 40.835L31.439 40.7738L31.3778 39.1609L30.1528 37.4051C29.9078 37.3438 30.0916 36.9151 30.0916 36.9151C30.3978 36.7517 30.0303 36.323 30.0303 36.323L29.9895 35.5676L30.704 35.5063L30.8674 35.2409H31.2145L31.1736 34.3426C31.337 33.8935 31.7453 34.1384 31.7453 34.1384L32.2149 34.1793L32.4803 33.6689L32.5415 33.2605L32.174 33.2197C31.7657 32.9747 31.9699 32.0764 31.9699 32.0764C32.6232 31.1168 33.3582 31.6681 33.3582 31.6681L33.8278 31.6272C34.5423 32.1172 33.889 32.9951 33.889 32.9951C33.7461 33.1993 33.8278 33.8526 33.8278 33.8526L33.9911 34.9551L33.5419 35.343C33.1744 35.5472 33.1744 36.0372 33.5828 36.1393C33.8482 36.1801 33.7461 36.8334 33.3378 36.3843C32.7253 36.3843 33.6848 36.9355 33.399 36.7926C34.0115 37.0988 33.8686 36.5272 33.8686 36.5272L34.6852 35.8738C34.9915 35.6288 35.5427 36.3843 35.5427 36.4863C35.5427 36.5884 36.8902 36.5272 36.8902 36.5272C37.2577 36.7722 37.4006 37.3847 37.4006 37.3847C37.7681 36.8947 38.5644 37.3438 37.9723 37.6297C38.5235 37.9767 38.5235 38.283 38.5235 38.283C38.9727 38.1401 38.9727 38.4871 38.9727 38.5892C38.9727 38.6913 39.1156 38.0788 39.1156 38.0788C38.6052 37.6909 39.7893 37.5684 39.4627 38.2421L39.2585 38.5484L39.6056 38.8138L39.6464 39.61C40.4018 39.5488 40.1977 38.6096 40.1977 38.6096L40.5448 38.5484C40.5448 38.2421 40.7897 38.4055 40.7897 38.4055C40.5448 37.2417 41.341 37.0376 41.341 37.0376C41.7902 36.9355 41.8106 35.9963 41.8106 35.9963C41.5043 35.8534 41.6677 35.3839 42.0147 35.7922C42.3618 36.2005 41.8106 34.9551 41.8106 34.9551L41.5452 34.7101L41.1777 34.6693L41.1368 34.2814H40.5243L40.4223 34.7714L40.1977 34.8734L40.1364 34.7305L40.0343 35.1184H39.4219L39.381 34.7101L39.7485 34.608L39.8914 34.4039L39.9935 33.8526H40.4427L41.0143 33.6893C41.0552 33.0972 41.3614 33.2401 41.3614 33.2401L41.5656 33.4035L41.8718 33.6485L41.9126 33.8526L41.7085 33.9547L41.6677 34.2405L41.7697 34.6284H42.0351C42.1372 34.0772 42.8518 34.0772 43.056 34.4243L43.2601 33.9343C42.7906 33.6893 43.2601 33.3218 43.3826 33.4851C43.5255 33.6485 43.8318 33.036 43.8318 33.036C43.8318 33.036 44.0768 33.3422 43.8318 32.9339C43.5868 32.5256 43.9951 32.3214 43.9951 32.3214C43.9339 31.9131 44.4443 31.9743 44.4443 31.9743L44.4851 31.4231L44.0155 31.3822C43.9135 31.8722 43.5051 31.4435 43.7093 31.3414C43.9135 31.2393 44.1176 31.0352 44.1176 31.0352V30.6881L44.3218 30.6268L44.3626 30.2798H44.873L45.3222 30.0756L45.4243 29.9123L45.8938 29.8714L46.5676 29.2589L46.5063 28.9935C46.098 28.9935 46.5063 28.6873 46.5063 28.6873L46.5472 28.1156Z" fill="#0F1A2E"/>
<path d="M32.8682 34.9347L32.2557 34.8734L32.2965 35.1184H32.4598C32.7253 35.6084 32.5007 36.7721 32.5007 36.7721C32.5007 36.7721 32.0923 36.813 32.0311 36.6088C31.9698 36.4046 31.7861 37.058 31.929 37.1601C32.0719 37.2621 32.5415 37.1601 32.5823 37.548C32.6232 37.9359 32.8886 37.303 32.8886 37.303L32.8682 34.9347Z" fill="#0F1A2E"/>
<path d="M32.2556 37.7317V38.5483L32.7864 39.2833L32.9906 38.7933L33.0723 38.4871L32.8273 38.385L32.8681 37.8746L33.0723 37.8337L33.0927 37.5887L32.5823 37.9358L32.2556 37.7317Z" fill="#0F1A2E"/>
<path d="M33.1336 40.0387V39.6917L32.8886 39.7325L32.8682 39.9979L33.1336 40.0387Z" fill="#0F1A2E"/>
<path d="M32.8273 41.6925V41.4475L32.5415 41.4883V41.7333L32.8273 41.6925Z" fill="#0F1A2E"/>
<path d="M33.2357 40.6307C33.3174 40.6307 33.3786 40.5694 33.3786 40.4878C33.3786 40.4061 33.3174 40.3448 33.2357 40.3448C33.154 40.3448 33.0928 40.4061 33.0928 40.4878C33.0928 40.5694 33.154 40.6307 33.2357 40.6307Z" fill="#0F1A2E"/>
<path d="M33.4603 41.3453C33.5392 41.3453 33.6032 41.2813 33.6032 41.2024C33.6032 41.1234 33.5392 41.0594 33.4603 41.0594C33.3814 41.0594 33.3174 41.1234 33.3174 41.2024C33.3174 41.2813 33.3814 41.3453 33.4603 41.3453Z" fill="#0F1A2E"/>
<path d="M33.4807 37.405C33.5596 37.405 33.6236 37.341 33.6236 37.2621C33.6236 37.1831 33.5596 37.1191 33.4807 37.1191C33.4018 37.1191 33.3378 37.1831 33.3378 37.2621C33.3378 37.341 33.4018 37.405 33.4807 37.405Z" fill="#0F1A2E"/>
<path d="M44.3627 32.5867H44.5668L44.6077 32.8113L44.4647 32.9338L44.4035 33.1176L44.1381 33.1788L43.5256 33.7709L43.4847 34.0363L43.3214 34.2813L43.1173 34.7917L42.4027 34.8325L42.2598 35.445L42.3618 35.9759L42.9743 36.2209L43.0356 35.8738L43.2398 35.7717L43.2806 35.4246L43.4235 35.1796L43.6277 34.9346L43.6889 34.6692L44.036 34.465L44.4443 34.3834L44.6077 34.1792L44.6689 33.7709L44.7097 33.4646L44.8526 33.2401L45.261 33.0767V32.4234H45.0568L45.016 32.1784L44.6485 32.1376L44.5668 32.3213H44.4035L44.3627 32.5867Z" fill="#0F1A2E"/>
<path d="M45.9551 34.5263V34.0363L45.8938 33.5872L45.3834 33.3422L45.0159 33.6892L44.9547 34.1792V34.4855L44.6076 34.5467L44.5463 35.4859L44.2809 35.588L44.3218 35.935L43.9543 36.0371L43.5868 36.1392L43.5255 36.5884L43.2601 36.7517L43.1172 37.16L42.9539 38.1604C42.9539 38.1604 43.2601 38.7525 43.4234 38.4667C43.5868 38.2013 43.8726 38.1604 43.8726 38.1604L43.9747 37.9154L44.8934 37.9563C44.9547 37.5684 45.4038 37.7113 45.4038 37.895C45.4038 38.0583 45.7509 37.9358 45.7509 37.9358L45.9959 37.5479H46.3634L46.4042 37.1396L46.5676 37.0375V36.425C47.1188 36.2617 47.0371 35.7309 47.0371 35.7309L47.18 35.5675L47.1188 35.3226C46.8534 35.2205 46.9759 34.9755 47.1596 35.0367C47.323 35.098 46.9146 34.7305 46.9146 34.7305C46.7105 34.8938 46.5471 34.5263 46.5471 34.5263H45.9551Z" fill="#0F1A2E"/>
<path d="M46.5064 38.6912C46.4655 39.0995 45.9551 39.2424 45.9551 39.2424L45.5876 39.1403L45.3835 38.977L45.3427 38.487L45.6489 38.4462L45.7101 38.6503L46.5064 38.6912Z" fill="#0F1A2E"/>
<path d="M48.3438 36.4861C48.4255 36.7924 48.4051 35.9962 48.548 36.037C48.6909 36.0778 48.5888 35.547 48.5888 35.547L47.9763 35.9962C48.2621 36.037 48.303 36.3432 48.3438 36.4861Z" fill="#0F1A2E"/>
<path d="M50.1405 34.6897C50.2834 34.9959 50.2426 35.4451 50.753 35.7921C50.9163 35.9146 50.6509 36.1392 50.4875 36.0371C50.3242 35.9351 49.8342 35.1797 49.8342 35.1797V34.7305C49.9363 34.4651 50.0792 34.5672 50.1405 34.6897Z" fill="#0F1A2E"/>
<path d="M50.1405 45.1632L50.2426 45.2653L50.3447 45.449L50.5692 45.0611L50.3855 44.9999L50.1405 45.1632Z" fill="#0F1A2E"/>
<path d="M54.2033 44.122L54.4687 43.9382L54.3666 43.7749L54.0808 43.9382L54.2033 44.122Z" fill="#0F1A2E"/>
<path d="M64.0236 51.3085L64.3299 51.4514L64.3707 52.0435C64.779 52.4519 66.1061 52.1048 66.1061 52.0027C66.1061 51.9006 66.0449 50.7369 66.0449 50.7369L65.8815 50.5735L65.8407 49.7161C65.9836 49.2669 65.1874 48.6136 65.1261 48.7565C65.0649 48.8994 64.6157 48.7973 64.6157 48.9198C64.6157 49.0627 64.3503 49.7365 64.4728 49.9815C64.6157 50.2265 64.3707 50.2265 64.3299 50.4715C64.289 50.6756 63.942 51.084 64.0236 51.3085Z" fill="#0F1A2E"/>
<path d="M63.2681 49.9202C63.2069 50.1856 62.9619 50.3285 62.819 50.2265C62.676 50.1244 62.9823 50.3898 63.064 50.5327C63.1252 50.6756 63.3294 50.6756 63.411 50.5327C63.4723 50.3898 63.4519 50.0836 63.5131 49.9406C63.5744 49.8181 63.309 49.7773 63.2681 49.9202Z" fill="#0F1A2E"/>
<path d="M61.9412 43.6116H61.6962V44.2649H61.9412V43.6116Z" fill="#0F1A2E"/>
<path d="M65.2078 36.9763C65.0648 36.7721 65.8815 36.4251 66.0244 36.8334C66.1673 37.2417 66.0244 37.1805 65.8815 37.1396C65.759 37.0988 65.4119 37.2417 65.2078 36.9763Z" fill="#0F1A2E"/>
<path d="M65.9428 32.3622L65.902 32.5663L66.2695 32.6276L66.3103 32.4234L65.9428 32.3622Z" fill="#0F1A2E"/>
<path d="M64.9832 32.9542L65.0036 33.0154L65.2077 32.9338L65.1261 32.7704L65.0852 32.6479L64.9832 32.7092L64.7382 32.8521L64.5136 32.7092L64.4115 32.8929L64.6769 33.0563L64.7382 33.0971L64.779 33.0563L64.9832 32.9542Z" fill="#0F1A2E"/>
<path d="M66.2695 24.563H65.7591C65.7591 24.563 65.9224 24.6243 65.4528 24.1751C64.9833 23.726 64.677 24.2772 64.677 24.2772L64.1258 24.3384V24.8897L63.8604 24.9918L63.9012 25.3388L64.2687 25.298C64.2687 25.298 64.2687 25.7063 64.3708 25.543C64.4728 25.3797 65.3303 25.5838 65.2487 25.9922C65.2283 26.1555 66.1062 26.6047 66.0041 27.1559C66.4532 27.2172 66.3512 27.6663 66.3512 27.6663L66.9228 27.7276L67.0862 27.3805L67.2495 27.4213V27.2172L66.882 27.1151L66.8207 26.0126L66.5757 25.8493L66.637 25.5634L66.3716 25.4613L66.5145 25.0122L66.2695 24.563Z" fill="#0F1A2E"/>
<path d="M67.7598 28.0746L67.4944 28.0338L66.8819 28.1359L66.5348 28.7892C66.5348 28.7892 66.6982 28.8913 66.8411 29.1363C66.984 29.3813 67.0452 30.79 66.6369 31.035C66.2286 31.28 66.6778 31.1371 66.6778 31.1371L66.6165 31.8925C66.7186 32.2396 66.8819 32.0558 66.984 31.8925C67.0861 31.7292 67.1882 31.6883 67.3311 31.5046C67.474 31.3413 67.6782 31.0146 67.6986 30.79C67.7394 30.545 67.9027 30.1775 67.8007 30.0754C67.6986 29.9734 67.9027 29.4834 67.9027 29.4834C67.9027 29.4834 68.0457 29.1975 67.9027 28.9321C67.7598 28.6463 67.9436 28.3401 68.0456 28.2176L67.7598 28.0746Z" fill="#0F1A2E"/>
<path d="M68.1681 29.4834L68.1885 29.218L68.3927 29.2384L68.3723 29.5243L68.1681 29.4834Z" fill="#0F1A2E"/>
<path d="M68.1477 30.443L67.964 30.3409L68.0661 30.1367L68.2498 30.2388L68.1477 30.443Z" fill="#0F1A2E"/>
<path d="M67.8619 27.7072L67.719 27.401C67.719 27.401 67.719 27.1355 67.7802 26.9926C67.8415 26.8497 67.6373 26.7272 67.5352 26.6864C67.4331 26.6456 67.474 26.3801 67.4331 26.2372C67.3923 26.0943 67.1677 25.9922 67.1677 25.9922C67.1677 25.9922 67.1065 25.4818 67.1065 25.3797C67.1065 25.2777 66.8002 25.1347 66.9023 25.0327C67.0044 24.9306 67.0656 24.7877 67.1677 24.7264C67.2698 24.6652 67.0656 24.1752 67.229 24.2772C67.3923 24.3793 67.3923 24.5631 67.474 24.6856C67.5352 24.8285 67.4331 25.2981 67.6169 25.4001C67.7802 25.5022 67.576 25.8493 67.8619 25.8493C68.1273 25.8493 67.9639 26.5026 67.9639 26.5026C67.9639 26.5026 67.9027 26.9926 68.066 27.013C68.2294 27.0539 68.1273 27.8705 68.1273 27.8705L67.8619 27.7072Z" fill="#0F1A2E"/>
<path d="M65.6569 22.1336C65.7589 22.2765 65.9631 22.3786 65.9631 22.5215C65.9631 22.6644 65.9019 22.7665 66.106 22.7869C66.3102 22.8277 66.4531 22.7461 66.5143 22.9298C66.5756 23.0931 66.5756 23.379 66.5552 23.5219C66.5143 23.6648 66.596 23.869 66.7593 23.869C66.9227 23.869 66.9635 23.9098 66.9635 24.0119C66.9635 24.114 67.1677 23.624 67.1677 23.624C67.0043 23.4811 66.8614 23.1748 66.8614 23.1748C66.8614 23.1748 66.6981 22.6848 66.6981 22.6236C66.6981 22.5623 66.4531 22.4807 66.351 22.4602C66.2489 22.4194 66.0856 22.1132 66.0856 22.1132L65.6569 22.1336Z" fill="#0F1A2E"/>
<path d="M65.9836 21.8069C65.8815 21.664 65.7794 21.5619 65.6365 21.5007C65.4936 21.4394 65.3915 21.3578 65.269 21.3578C65.1261 21.3578 65.0036 21.2148 65.0649 21.0515C65.1261 20.8882 64.9628 20.8065 64.9628 20.6636C64.9628 20.5207 65.0649 20.5207 65.2282 20.6228C65.3915 20.7248 65.3711 20.7657 65.4936 20.929C65.6365 21.0923 65.6978 21.2761 65.8407 21.2353C65.9836 21.1944 66.0857 21.5415 66.2082 21.4394C66.3511 21.3373 66.3103 21.6844 66.3103 21.6844L65.9836 21.8069Z" fill="#0F1A2E"/>
<path d="M62.0228 25.7064C62.2065 25.8901 61.002 25.8493 61.002 25.7064C61.002 25.5635 61.104 25.0939 61.4103 25.196C61.7165 25.298 61.7574 24.5835 61.7574 24.5835C61.7574 24.5835 61.4919 24.6243 61.7165 24.4814C61.9615 24.3385 61.7165 24.1343 61.6144 24.0322C61.5124 23.9301 61.4103 23.7464 61.4103 23.7464H61.8799C62.084 23.6035 62.1453 22.9502 62.1453 22.9502C62.5536 23.0931 62.7578 22.8073 62.7578 22.8073C62.7578 22.8073 62.819 23.0114 62.9619 23.1952C63.1048 23.3585 62.6149 23.4402 62.7986 23.5422C62.9619 23.6443 63.0436 23.9506 62.9619 24.0526C62.9007 24.1547 62.5128 24.0935 62.5128 23.9506C62.5128 23.8077 62.3699 24.1139 62.5128 24.2976C62.6557 24.461 62.3494 24.706 62.2678 24.706C62.2065 24.706 61.7574 24.7672 62.1249 24.9918C62.4924 25.196 62.9007 25.0939 62.9007 25.0939C62.9007 25.0939 63.2069 25.053 63.309 25.2368C63.4111 25.4001 63.2682 25.441 63.1048 25.441C62.9415 25.441 62.1249 25.3797 62.1249 25.3797C62.1249 25.3797 61.9207 25.6043 62.0228 25.7064Z" fill="#0F1A2E"/>
<path d="M59.8382 26.0126C60.0015 25.9717 60.4099 25.9513 60.4915 26.0534C60.5528 26.1555 60.2465 26.2984 60.2465 26.2984L59.8382 26.3597C59.7157 26.1963 59.6749 26.0534 59.8382 26.0126Z" fill="#0F1A2E"/>
<path d="M64.2278 23.1339C64.4932 22.9909 65.0853 22.9909 65.0444 22.7868C65.0036 22.5826 65.3915 22.5214 65.3915 22.5214L65.4936 22.9297L65.7999 23.1339L65.8407 23.5218C65.8407 23.5218 65.9428 23.4605 65.5753 23.5626C65.2078 23.6647 65.4324 23.828 65.4324 23.828L64.6157 23.8689L64.5136 23.5218L64.2278 23.1339Z" fill="#0F1A2E"/>
<path d="M62.9007 21.2556C63.1049 21.2556 62.8395 22.0518 63.3703 21.9702C63.9215 21.9089 63.4111 22.2152 63.8194 22.2356C64.2278 22.2764 64.1257 21.9293 64.2686 21.6843C64.4115 21.4393 64.3299 21.2964 64.1053 21.2352C63.8603 21.1739 63.8603 21.1739 63.799 20.8881C63.7378 20.6227 63.4519 20.541 63.4519 20.541L63.3499 20.1327L62.9007 20.3981L62.4515 20.9902C62.4515 21.4802 62.6965 21.2556 62.9007 21.2556Z" fill="#0F1A2E"/>
<path d="M63.799 24.1752L63.901 23.9711L64.0848 24.0527L63.9827 24.2773L63.799 24.1752Z" fill="#0F1A2E"/>
<path d="M63.6562 23.8485H63.452V24.0935H63.6562V23.8485Z" fill="#0F1A2E"/>
<path d="M63.6153 19.2548L63.6561 19.561L63.452 19.5814L63.4111 19.2752L63.6153 19.2548Z" fill="#0F1A2E"/>
<path d="M63.2479 22.4602H63.0437V22.6235H63.2479V22.4602Z" fill="#0F1A2E"/>
<path d="M62.4923 22.4602L62.4719 22.256L62.819 22.2356L62.8394 22.4398L62.4923 22.4602Z" fill="#0F1A2E"/>
<path d="M59.6953 25.7881L59.5116 25.7064L59.6137 25.4614L59.7974 25.5431L59.6953 25.7881Z" fill="#0F1A2E"/>
<path d="M58.6337 25.1552L58.6133 24.951L58.9604 24.9102L58.9808 25.1143L58.6337 25.1552Z" fill="#0F1A2E"/>
<path d="M52.7538 25.0939L51.9984 25.1143L52.0188 25.3184L52.7538 25.298V25.0939Z" fill="#0F1A2E"/>
<path d="M51.5083 25.3797L51.4266 25.0734L51.6308 25.0326L51.6921 25.3388L51.5083 25.3797Z" fill="#0F1A2E"/>
<path d="M51.3654 25.6043L51.3042 25.4002L51.4063 25.3798L51.4675 25.5635L51.3654 25.6043Z" fill="#0F1A2E"/>
<path d="M53.06 25.0122L53.0192 25.2572L53.3867 25.298C53.3867 25.298 53.55 25.4409 53.55 25.543C53.55 25.6451 53.795 25.7472 53.9175 25.7472C54.0604 25.7472 54.4279 25.4614 54.4279 25.4614C54.4279 25.4614 54.5912 24.9714 54.4687 25.0122C54.3258 25.053 54.0604 25.2572 54.0196 25.053C53.9787 24.8489 53.5704 24.9509 53.5704 24.9509L53.06 25.0122Z" fill="#0F1A2E"/>
<path d="M54.7546 24.6448C54.7546 24.7469 54.6933 24.8898 54.8975 24.9306C55.1017 24.9715 55.4692 24.7877 55.51 24.9919C55.5508 25.1961 55.5508 25.339 55.8162 25.4411C56.0817 25.5431 56.2654 25.584 56.4696 25.584C56.6737 25.584 57.1229 25.5227 57.1229 25.5227C57.1229 25.5227 57.6129 25.6044 57.6946 25.6861C58.062 26.074 58.307 26.176 58.4091 25.9923C58.5112 25.829 58.3683 25.4411 58.3479 25.2981C58.307 25.1552 57.8375 24.5019 57.6741 24.6448C57.5108 24.7877 57.47 24.6448 57.1637 24.7469C56.8575 24.849 56.2041 24.7877 56.1837 24.6448C56.1429 24.5019 55.6733 24.4407 55.6733 24.2977C55.6733 24.1548 55.3262 23.9915 55.3671 24.1957C55.4079 24.3998 55.1221 24.5019 55.0608 24.4407C54.9587 24.359 54.7546 24.6448 54.7546 24.6448Z" fill="#0F1A2E"/>
<path d="M62.5536 20.2348L62.7986 19.4794C62.4515 19.4181 62.5332 19.0302 62.5332 19.0302C62.4924 18.724 62.0228 18.3769 61.8595 18.479C61.6961 18.5811 61.7574 17.7644 61.7574 17.7644C61.7574 17.7644 62.0636 17.5602 62.2065 17.6623C62.3494 17.7644 61.0428 15.9474 60.7774 16.1107C60.512 16.274 59.8995 15.9474 59.9199 15.6207C59.9607 15.3144 58.6949 14.2732 58.6949 14.2732C58.6949 14.2732 58.2866 14.0078 58.2253 14.212C58.1641 14.4161 58.0212 14.559 58.2253 14.6611C58.4295 14.7632 58.3887 14.4978 58.6337 14.7224C58.8787 14.9674 59.3074 15.2736 59.1441 15.4778C58.9807 15.6819 58.7766 15.7636 58.7766 15.7636L59.0216 16.0494H59.3891L59.4503 16.6415C59.4503 16.6415 59.8586 16.8457 59.9607 17.0907C60.0628 17.3357 60.0628 17.4786 59.9607 17.6011C59.8586 17.744 59.6545 17.989 59.6953 18.2136C59.7361 18.4586 60.0016 18.5606 60.0016 18.5606L60.267 18.6015L60.4711 18.7036V19.1527C60.7365 19.0915 61.1857 19.459 61.1449 19.704C61.104 19.949 61.2061 19.8061 61.5532 20.051C61.9003 20.296 61.7982 20.3369 62.0228 20.5002C62.2474 20.6431 62.4515 20.541 62.5536 20.2348Z" fill="#0F1A2E"/>
<path d="M56.9595 15.5391C56.9187 15.3962 56.8574 14.9266 57.0616 14.947C57.2658 14.9878 57.1228 14.947 57.3678 15.0491C57.6128 15.1512 57.6332 14.8857 57.6332 14.8857H58.0007L58.4703 15.2737L58.4091 15.5799L58.062 15.6207C57.8987 15.3553 57.5516 15.4574 57.6128 15.682C57.6741 15.927 57.4495 16.3761 57.3066 16.3966C57.1637 16.4374 56.7349 16.4374 56.7553 16.2332C56.8166 16.0291 56.9595 15.5391 56.9595 15.5391Z" fill="#0F1A2E"/>
<path d="M56.6942 14.6202V14.3548C56.6942 14.3548 56.6534 14.0894 56.49 14.0894C56.3267 14.0894 56.0205 13.8852 56.0817 13.7423C56.143 13.5994 55.51 13.4565 55.51 13.4565C55.51 13.4565 54.9384 12.9052 55.1426 12.9665C55.3467 13.0277 55.2446 12.7215 55.2446 12.7215C55.2446 12.7215 54.8363 12.7827 54.7342 12.7623C54.6321 12.7215 54.673 12.4152 54.673 12.4152C54.673 12.4152 54.2646 12.3132 54.2646 12.4152C54.2646 12.5173 54.4076 12.5173 54.4688 12.7215C54.5301 12.9257 54.5096 13.2727 54.8159 13.334C55.1221 13.3952 55.1834 13.4769 55.2242 13.6198C55.2651 13.7627 55.6325 13.7831 55.6325 13.7831L55.898 13.9261L56.6942 14.6202Z" fill="#0F1A2E"/>
<path d="M53.0191 11.1087L52.917 10.8228L52.6516 10.7616V11.0678L53.0191 11.1087Z" fill="#0F1A2E"/>
<path d="M52.9171 9.65916C52.57 9.39375 53.3867 9.86333 53.3867 9.86333C53.6521 9.86333 53.8358 10.0675 53.8358 10.1696C53.8358 10.2717 54.2033 10.2308 54.2033 10.2308L54.2441 9.98582L53.9787 9.63875L53.7337 9.47541C53.7337 9.47541 53.3662 9.43458 53.3662 9.3325C53.3662 9.25083 53.06 9.76124 52.9171 9.65916Z" fill="#0F1A2E"/>
<path d="M59.1645 9.86332C59.0624 10.1696 59.0215 10.5779 58.8582 10.5779C58.6949 10.5779 58.7561 11.027 58.7561 11.027C58.7561 11.027 59.2053 11.027 59.3278 11.0679C59.4707 11.1087 59.4707 11.4558 59.4707 11.4558C59.9811 11.415 60.1853 12.1091 60.124 12.2929C60.0628 12.4562 60.3282 12.4562 60.3282 12.4562C60.3282 12.4562 60.3282 13.0074 60.2669 13.1504C60.2057 13.2933 60.7161 13.3954 60.8386 13.5995C60.9815 13.8037 60.7773 14.4978 60.6753 14.5387C60.5732 14.5795 60.9407 14.6816 60.9203 14.8449C60.8794 15.0082 61.0223 14.8449 61.0632 15.1307C61.104 15.3962 61.1653 15.9882 61.1653 15.9882L61.6348 16.0291C61.6961 15.5799 62.574 15.5595 62.7169 15.6207C63.2886 15.8249 63.7377 16.7232 63.7377 16.9274C63.7377 17.1316 63.3702 17.1724 63.3702 17.1724L63.4315 18.1728C64.0031 18.3361 64.4931 19.1732 64.4115 19.3161C64.3502 19.459 64.8198 19.4182 64.8198 19.4182C64.881 18.8057 65.4731 19.0099 65.4935 19.214C65.5344 19.4182 65.6365 19.8673 65.6365 19.8673L65.7998 20.1736L66.0448 20.4186L66.4123 20.3778L66.5144 20.5819L66.9635 20.6432C66.9635 20.6432 67.331 21.0515 67.3719 21.1536C67.4127 21.2557 67.9231 21.2148 68.0456 21.2557C68.1885 21.2965 68.3927 21.3986 68.4131 21.5619C68.4539 21.7252 68.6581 22.0111 68.6581 22.0111C68.6581 22.0111 69.0664 22.1131 69.1072 22.2561C69.1481 22.399 69.3114 22.7052 69.3114 22.7052L69.6585 22.9911L69.6993 23.2973L70.0668 23.3381L70.1689 23.7465L70.7814 23.7056L71.1285 23.4606C71.5776 23.2156 71.8839 22.9094 71.9043 22.7665C71.9451 22.6236 72.0064 22.1132 72.3535 22.2152C72.7005 22.3173 72.4555 21.4598 72.4555 21.4598C72.4555 21.4598 71.986 21.1127 72.0064 20.9494C72.0472 20.7861 71.5368 20.439 71.5572 20.2961C71.598 20.1532 71.1081 19.8878 71.1489 19.7448C71.1897 19.6019 70.9039 19.2344 70.9039 19.2344L70.3935 18.7444L70.3322 18.4382L69.9239 18.3974L69.1072 17.397L69.1481 17.1111L68.9031 17.0703V16.6824L68.6581 16.5395L68.2906 16.4986L67.5352 15.682L67.4739 15.2941H67.1064L67.1677 14.5795C67.4127 14.2733 67.2698 13.6812 67.2698 13.6812C67.2698 13.6812 66.8002 13.9262 66.5552 13.8241C66.3102 13.722 66.6573 13.477 66.6573 13.477V13.2116L66.4531 13.0074C66.4531 13.0074 65.8815 13.0687 65.8406 12.9666C65.7998 12.8645 65.6977 12.4154 65.6977 12.4154L65.6569 11.8233L65.4119 11.7212L65.371 11.517L65.0035 11.5579V11.1495L64.7994 11.0883L64.5952 10.9862L64.5544 10.5779L63.799 10.5371L63.554 10.19L63.2886 9.78165L62.4311 9.7204L62.2269 9.51624L61.8798 9.45499L61.6348 9.35291L61.5328 9.51624L60.8794 9.55707L60.8386 9.76123C60.5528 9.90415 59.2053 9.76123 59.1645 9.86332Z" fill="#0F1A2E"/>
<path d="M62.7374 8.96495C62.6761 8.69953 63.4111 8.45454 63.5949 8.6587C63.7582 8.86287 64.2482 8.9037 64.3094 9.92452C64.3299 10.292 63.6969 9.53661 63.6969 9.53661L63.1865 9.37327C62.9007 9.31203 62.7578 9.14869 62.7374 8.96495Z" fill="#0F1A2E"/>
<path d="M52.7742 9.3938L52.5905 9.31214L52.7334 8.98547L52.9171 9.08756L52.7742 9.3938Z" fill="#0F1A2E"/>
<path d="M51.0184 6.00462L50.5692 5.55546V5.16755L50.4263 5.02463L50.2834 4.53464L49.8342 4.39172L49.3851 4.55505L48.9155 4.8613L48.4051 4.92255L48.1396 5.2288L49.2217 5.33088L49.4259 5.67796L50.2017 5.73921L50.7121 6.24962C51.1817 6.45378 51.2838 6.24962 51.0184 6.00462Z" fill="#0F1A2E"/>
<path d="M50.9571 4.31005C50.8754 4.0038 50.4467 4.69796 50.8959 4.82046C51.345 4.96337 51.7738 4.82046 51.7738 4.82046L51.8759 4.61629L53.5704 4.65713C53.7133 4.51421 53.7746 4.31005 53.7746 4.31005C53.7746 4.31005 54.1829 4.16713 54.3462 4.2488C54.5096 4.31005 54.3871 3.7588 54.2033 3.84047C54.04 3.90172 53.6929 3.8813 53.6929 3.8813H53.0804C53.0396 3.63631 52.5088 3.73839 52.4679 3.8813C52.4475 4.0038 52.2433 4.04463 52.2433 4.04463L51.4675 4.10588C51.3859 4.31005 50.9979 4.45296 50.9571 4.31005Z" fill="#0F1A2E"/>
<path d="M47.5884 10.1287C48.1193 10.292 48.303 10.1695 48.3438 10.0266C48.3847 9.88369 48.4051 9.86328 48.6092 9.82244C48.8134 9.78161 48.5684 9.37329 48.3642 9.41412C48.1601 9.45495 47.9559 9.35287 47.9151 9.16912C47.8743 9.00579 47.5476 8.55663 47.5068 8.90371C47.4659 9.25079 47.2618 9.25079 47.3026 9.49578C47.3639 9.72036 47.4659 10.0879 47.5884 10.1287Z" fill="#0F1A2E"/>
<path d="M43.6889 10.5166C43.6685 10.3941 44.3627 10.3737 44.4647 10.4758C44.5668 10.5778 44.5056 10.7616 44.8118 10.7616C45.1181 10.7616 44.9751 10.9658 44.9547 11.0678C44.9139 11.1699 44.5872 11.1291 44.5464 11.027C44.5056 10.9249 43.9952 10.8841 43.9952 10.8841C43.9952 10.8841 43.7298 10.6799 43.6889 10.5166Z" fill="#0F1A2E"/>
<path d="M54.877 3.5546L54.9587 3.63626L55.02 3.57502L55.367 3.28919L55.2241 3.12585L54.9587 3.35044L54.7954 3.16669L54.6525 3.33002L54.877 3.5546Z" fill="#0F1A2E"/>
<path d="M53.3662 2.75837L53.407 2.71753L53.795 2.47254L53.6725 2.3092L53.3662 2.51337L53.1416 2.37045L53.0396 2.5542L53.305 2.71753L53.3662 2.75837Z" fill="#0F1A2E"/>
<path d="M52.1413 9.78159L52.3659 10.1287L52.5292 10.0062L52.3046 9.63867L52.2638 9.59784H52.223L51.8759 9.55701L51.8555 9.76117L52.1413 9.78159Z" fill="#0F1A2E"/>
<path d="M41.0348 19.1936L41.0756 19.5815H41.586C41.7902 19.5815 41.4227 19.3365 41.4227 19.3365C41.4227 19.3365 41.0144 19.3774 41.0348 19.1936Z" fill="#0F1A2E"/>
<path d="M41.6881 19.214L41.8106 19.0507L42.0148 19.214L41.8923 19.3773L41.6881 19.214Z" fill="#0F1A2E"/>
<path d="M35.502 12.7624L35.6449 12.6195L35.849 12.8237L35.7061 12.9666L35.502 12.7624Z" fill="#0F1A2E"/>
<path d="M45.0772 57.2906L45.2202 57.4335L45.3835 57.2702L45.4856 57.1681L45.3631 57.0864L45.016 56.9231L44.9343 57.1068L45.1385 57.2089L45.0772 57.2906Z" fill="#0F1A2E"/>
<path d="M42.4026 54.7997L42.6476 54.963L42.7701 54.7997L42.6272 54.6976L42.7293 54.616L42.6068 54.4526L42.4026 54.6364L42.3005 54.7181L42.4026 54.7997Z" fill="#0F1A2E"/>
<path d="M67.9844 48.0828C67.9435 47.899 67.7394 47.8378 67.719 47.8378L67.6577 48.0419C67.6781 48.0419 67.6985 48.0623 67.719 48.0828L67.7598 48.2665C67.7394 48.2869 67.719 48.3073 67.719 48.3278L67.8619 48.4707C67.964 48.3073 68.0048 48.2053 67.9844 48.0828Z" fill="#0F1A2E"/>
<path d="M68.2906 47.4295L67.964 47.409L67.9844 47.1028L68.3111 47.1436L68.2906 47.4295Z" fill="#0F1A2E"/>
<path d="M76.151 44.7548C76.2939 44.6732 76.4776 44.4894 76.4572 44.8773C76.4368 45.2652 76.2735 45.1427 76.151 45.2652C76.0285 45.3877 75.9468 44.8773 76.151 44.7548Z" fill="#0F1A2E"/>
<path d="M77.8863 43.2848V43.244C77.8863 43.1827 77.8659 43.1011 77.8251 43.0194L77.6414 43.1215C77.6618 43.1623 77.6618 43.2236 77.6822 43.2644C77.6822 43.3257 77.7026 43.3869 77.7434 43.4277C77.7843 43.4481 77.8251 43.4686 77.8863 43.4481L77.8455 43.244C77.8455 43.2644 77.8659 43.2644 77.8863 43.2848Z" fill="#0F1A2E"/>
<path d="M77.4371 43.4483C77.4984 43.6525 77.5596 43.8567 77.5596 43.8771L77.7434 43.7954C77.7434 43.7954 77.6617 43.5912 77.6209 43.3871L77.4371 43.4483Z" fill="#0F1A2E"/>
<path d="M76.6818 44.2649L76.4776 44.2445C76.4572 44.4078 76.498 44.612 76.6614 44.6324L76.7022 44.4282C76.7022 44.4282 76.6818 44.3466 76.6818 44.2649Z" fill="#0F1A2E"/>
<path d="M75.8038 40.1612C75.7834 40.1 75.763 40.0387 75.7017 40.0183C75.5588 39.9571 75.2934 40.0592 75.1709 40.1408L75.2934 40.3041C75.4159 40.2225 75.5996 40.1817 75.6201 40.2021C75.6201 40.2021 75.6201 40.2021 75.6201 40.1816L75.8038 40.1612Z" fill="#0F1A2E"/>
<path d="M66.3919 29.1567C66.249 29.2997 65.9427 29.3609 65.9427 29.3609L65.8406 29.7488L65.6773 29.8917C65.6773 29.8917 65.7181 29.9938 65.6773 30.2388C65.6365 30.4838 65.3302 30.6267 65.3302 30.6267L65.1873 30.7901C65.1873 30.7901 64.3706 30.8309 64.2686 30.7901C63.9623 30.6471 64.1665 30.2388 64.3706 30.2797C64.5748 30.3205 64.3298 29.6876 64.3298 29.6876L64.5952 29.6467C64.5952 29.6467 64.6361 29.0342 64.7381 29.0342C64.8402 29.0342 64.6973 28.8301 64.5748 28.728C64.4319 28.6259 64.2686 28.2788 64.1257 28.3197C63.9827 28.3605 63.4519 28.3197 63.4519 28.3197L63.3498 28.5238L62.9823 28.5851C62.9823 28.5851 63.0232 28.8505 62.9415 28.9322C62.7373 29.1772 61.9615 29.6876 62.2882 28.8301L62.3903 28.6259V28.3197L61.7778 28.2788C61.7778 28.2788 61.4715 28.1768 61.4715 28.0338C61.4715 27.8909 61.4307 27.7276 61.4307 27.7276L60.7161 26.9314L59.8586 26.8293L59.7974 26.666L59.287 26.6047C58.6745 26.2985 58.1232 26.5639 58.2253 27.0947C58.3274 27.6051 58.4907 27.8093 58.1641 27.8093C57.817 27.8093 57.7557 27.5439 57.7557 27.5439C57.7557 27.5439 57.4903 27.4418 57.4903 27.5847C57.4903 27.7276 57.3882 27.993 57.4903 28.1359C57.5924 28.2788 57.3474 28.483 57.2453 28.3809C57.1432 28.2788 56.8778 27.9726 56.9391 27.8705C57.0003 27.7684 56.4695 27.1151 57.0003 27.013C57.5516 26.9109 56.9595 26.6047 57.1637 26.523L57.4291 26.3801H57.6945L57.8578 26.2372L57.4087 26.176L57.1432 26.1351L56.6328 26.0943C56.1224 26.4414 56.0203 26.8497 56.0203 26.8497C55.7549 27.3601 55.1016 26.6455 55.3466 26.3597C55.5916 26.0739 54.5912 26.3189 54.4279 26.4618C54.2645 26.6047 53.7541 26.523 53.7541 26.523C53.652 26.8293 53.1825 26.4822 53.305 26.278C53.4479 26.0739 53.4479 25.931 53.4479 25.931L53.2846 25.8901L53.0804 26.278C52.6108 26.278 52.4679 26.5435 52.57 26.7272C52.6721 26.8905 52.4271 26.6864 52.3658 26.9314C52.3046 27.1764 52.4066 27.1764 52.6108 27.2784C52.815 27.3805 52.5087 27.3805 52.6516 27.5439C52.7946 27.7072 53.2029 27.5439 52.9579 27.7889C52.7129 28.0338 52.2433 27.9318 52.2433 27.9318C52.2025 28.238 51.5696 28.1768 51.4879 28.0747C51.4267 27.9726 50.9163 27.3601 50.9163 27.3601L50.2629 27.3193C50.2017 26.8293 50.5692 27.0743 50.7121 26.7068C50.855 26.3189 50.9163 25.7064 50.9163 25.7064C50.9163 25.7064 50.365 25.6655 50.3446 25.8493C50.3038 26.0126 49.9771 26.1351 49.9771 26.1351C49.9771 26.1351 49.7117 26.2372 49.8138 26.3801C49.9159 26.523 49.6096 26.5843 49.6096 26.5843C49.6096 26.5843 49.6709 26.8089 49.5688 26.8905C49.3034 27.1764 48.6092 26.9314 48.5071 26.8293L48.0988 26.666L47.6905 26.4005L47.2209 26.6047L47.078 26.7476H46.5676L46.5267 27.1559L47.4455 27.258L47.5067 28.1155L47.1392 27.993H46.8942L46.7921 27.7889L46.588 27.748V28.5034L46.7921 28.6668L46.9555 28.8301L47.3026 28.8709L47.3638 29.2792L48.2213 29.3201L48.3234 29.4834L48.8338 29.5242L49.8138 30.5246L49.7525 30.8309L49.5892 30.933C49.6504 31.178 49.14 31.0351 49.14 31.0351V31.2392L49.385 31.2801L49.63 31.423L49.9771 30.8309C50.3446 30.5859 50.5283 30.933 50.5488 31.1371C50.5896 31.3413 50.3854 31.3005 50.3854 31.3005V31.7905L50.5896 31.8517C50.9367 32.26 50.4467 32.505 50.4467 32.505L50.3446 32.8521C50.2425 33.1584 49.875 33.0971 49.875 33.0971L49.7321 33.3013L49.3238 33.4034L50.12 33.5054C50.2017 33.2196 50.4058 33.1584 50.5079 33.3013C50.61 33.4442 50.61 33.6892 50.61 33.6892L50.8142 33.73L50.7733 34.1179L50.9775 34.1792V35.2817L51.2225 35.5471C51.6308 35.3837 51.6308 35.6492 51.4267 35.7921C51.2225 35.935 51.3654 36.5475 51.3654 36.5475L51.2021 36.7108V36.9966L50.9979 37.1396V37.5275C50.6508 37.3641 50.2425 37.4254 50.1404 37.5275C49.8342 37.3233 49.1809 37.3846 49.1809 37.5683C49.385 37.8337 48.9359 37.9154 48.9359 37.9154L48.6909 38.1808C48.8542 38.5279 48.5275 38.5687 48.5275 38.5687V39.222L48.1192 39.6099L48.16 40.5083C48.16 40.7533 48.6704 40.7737 48.7725 40.6512C48.8746 40.5083 49.2829 40.937 49.2829 40.937H49.5892L49.6504 40.3245L49.4463 40.2224V39.222L49.7934 38.8341C50.2017 38.6912 50.0588 39.7324 50.0588 39.8345C50.0996 40.2224 50.2629 40.1816 50.4263 40.0999C50.7733 39.957 50.4875 40.4878 50.2221 40.447C49.9567 40.4062 50.12 40.7941 50.12 40.7941L50.2833 40.8553L49.9771 41.1003L49.7117 41.4066L49.3646 41.3045L48.9563 41.2637L48.8134 41.0187L48.5684 40.9778L48.5275 41.4678L48.3642 41.672L47.9559 42.0803C48.5071 42.0803 47.8946 42.4682 47.7517 42.4682C48.058 42.5703 47.7109 42.8766 46.9351 42.6316V42.8766L46.6696 42.9174L46.9146 43.1828L47.1801 43.2236L47.078 43.8157C47.078 44.2649 45.9551 43.9586 45.853 43.8565L45.8122 44.469L45.608 44.5099L45.6488 44.9182L45.608 45.5103L45.9755 45.449V45.694L46.8942 45.7349L48.2213 44.3261L48.9971 44.1628C49.0584 43.8157 49.4054 44.224 49.4054 44.224C49.7525 44.1832 49.8138 44.4282 49.8138 44.4282L50.2629 44.4895C50.6304 44.5915 50.4058 44.6324 50.4263 44.7753C50.4671 44.9795 50.6304 44.9182 50.6304 44.9182L50.6917 44.469L50.8958 44.5099L50.6917 44.2649L50.3242 44.1015L49.9159 43.9382C49.6504 43.5503 49.9771 43.632 50.2629 43.6728H50.7121C50.7121 43.6728 51.2225 44.367 51.2225 44.5303C51.2225 44.6936 51.4675 44.7345 51.4675 44.7345L51.7737 44.6936L51.8758 44.9386H52.1821L52.2841 45.1428H52.8966L52.9375 44.8365L52.3658 44.7345L52.325 44.3874L51.9167 44.2853C51.7737 43.6932 52.0187 43.5299 52.1821 43.7953L52.3862 43.8361L52.325 43.3257L52.57 43.2645L52.5087 42.5499L52.3046 42.4887V42.2437L53.1621 42.2845C53.1008 41.8353 53.2029 41.6312 53.2029 41.6312H53.4479L53.4887 41.7945L54.53 41.8966L55.2649 41.0595C55.2241 40.9983 55.3466 40.9574 55.2649 40.8758C55.1629 40.7737 55.0199 40.8758 54.8566 40.7737C54.6933 40.6716 54.8566 40.0795 54.8158 39.957C54.7749 39.8141 55.3874 39.6099 55.2854 39.9162C55.1833 40.2224 55.2854 40.3653 55.2854 40.3653C55.7345 39.957 56.102 40.4062 56.0612 40.5083C56.0203 40.6103 56.3062 40.7124 56.4695 40.6103C56.6328 40.5083 56.837 40.9166 56.7758 41.1208C56.7145 41.3249 56.102 41.2841 56.0612 41.0799C56.0203 40.8758 55.9183 40.937 55.857 41.0391C55.7958 41.1412 55.4895 41.2024 55.3058 41.1003C55.2649 41.0799 55.2649 41.0595 55.2445 41.0391L54.5095 41.8762H54.5504C54.9587 42.1212 54.7545 42.4274 54.6116 42.4887C54.4687 42.5499 54.2441 42.5499 54.2441 42.5499L54.1829 42.6928L53.305 42.7541L53.2437 43.1011C52.7946 43.0399 52.6312 43.5095 52.7333 43.7545C52.8354 43.9995 52.7333 44.2036 52.7333 44.2036L53.1008 44.367L53.5704 44.224C53.6316 43.877 53.9379 43.8157 54.2237 43.6116C54.4891 43.4074 54.9383 43.9995 54.7954 44.2649C54.6524 44.5303 54.6524 44.6528 54.6524 44.6528L54.6933 44.959L54.3462 45.1019L54.0808 45.2449L54.04 45.4082H53.1212L52.9579 45.5715L52.5087 45.6124L52.3658 45.8165L52.0596 45.8574C52.0596 45.8574 51.5492 46.1024 51.7533 46.3678C51.9575 46.6536 50.8958 46.6128 50.6713 46.2248C50.61 46.5719 50.2221 46.2657 50.2221 46.2657L49.8546 46.1636L49.8138 45.6532C49.7525 45.3061 49.0992 45.3061 49.14 45.5511C49.1809 45.7961 47.915 45.6532 47.915 45.6532L47.5067 45.8574L47.1392 46.0819L47.0984 46.2453L46.4859 46.3065L46.2205 46.4494L46.1184 46.2453H45.853L45.5876 46.6332C44.873 46.674 44.1993 47.0823 44.2605 47.2457C44.3218 47.409 43.9951 47.5927 43.9951 47.5927L43.6889 47.6948L43.4847 48.0011L43.0764 48.144L43.0151 48.8586L42.8109 49.0015V49.3077L42.566 49.369V49.5323L42.2189 49.5731L42.423 50.0835L42.6884 50.2265C43.158 50.2877 42.9539 50.8798 42.9539 50.8798L43.2193 50.9206L43.3622 51.3085L43.6276 51.8598C43.7297 52.2681 44.0359 52.166 44.1788 52.1456C44.3218 52.1048 44.4443 52.5539 44.4443 52.5539L45.7917 52.5948C45.7917 52.5948 45.7305 52.7377 45.9551 52.7989C46.2001 52.8602 47.7517 52.9418 47.813 52.8398C47.7517 52.5335 48.6705 52.4518 49.0379 52.7377C49.4054 53.0031 49.9159 52.8398 49.9159 52.8398L50.4263 53.4523L50.7733 54.2077L51.345 54.371L51.7533 54.4731L51.8962 55.0651L52.2025 55.106L52.3046 55.4939C52.6721 55.7593 52.2025 56.3514 52.2025 56.3514V57.1068L52.4679 57.2497L52.4271 57.5355L52.8762 57.9847L53.3866 58.0255L54.6729 59.3934L55.6937 59.6997L55.857 60.2509L56.1224 60.2101L56.3266 60.0467L57.1432 60.0059L57.5516 59.618L58.0007 59.5568L61.7778 56.3514L61.4307 56.1472V55.3918C62.0432 54.9426 62.084 54.1464 61.4919 54.0852C61.0632 54.0239 61.2469 53.5748 61.6553 53.4931L61.9003 53.391V53.0848L62.6761 52.3702V51.8189L60.9815 50.4102C60.2261 50.1448 60.9815 48.4911 61.4919 48.5115C62.0023 48.5523 61.4511 45.9594 61.4511 45.9594L61.1857 45.8165L61.2469 44.9795H60.8794L60.267 45.7757L60.1036 46.3269C60.0424 47.0415 57.9395 46.919 57.8374 46.8169C57.7353 46.7148 57.0207 46.4086 57.0207 46.4086C57.0207 46.4086 56.4695 45.9594 56.3674 46.1024C56.2653 46.2453 55.7958 45.939 55.7958 46.0411C55.7958 46.1432 55.3466 45.7961 55.3466 45.7961L54.6729 45.5511L55.1833 45.449L55.0812 45.0407L55.9591 45.4899C56.0612 45.6328 56.5103 45.5919 56.5103 45.5919L56.6533 45.7553C56.6533 45.7553 56.9187 45.7144 57.1024 45.9186C57.2657 46.1228 58.1641 45.9594 58.1641 45.9594L58.4091 46.1636L58.7766 46.3065L59.8382 46.3473L59.879 45.694L60.0832 45.4899L60.0424 45.0815L60.2874 44.8774V44.5303L60.4915 44.469L60.5324 43.7136L60.6957 43.6728V42.0191L60.1853 41.5291C60.1445 41.6924 59.6136 41.6924 59.6136 41.6924C59.6136 41.6924 59.4707 41.9374 59.3686 41.9374C59.2666 41.9374 59.5116 42.2437 59.4299 42.4478C59.3686 42.652 59.0828 42.652 59.0828 42.652L58.5724 42.7949L58.4295 42.9582H57.8782L57.817 42.5091L58.4295 42.3457L58.7766 42.1824L58.9399 41.8353C58.9807 41.4882 59.389 41.5291 59.389 41.5291C59.389 41.5291 60.1649 40.8758 60.2057 40.5695C60.2465 40.2633 60.5119 39.4058 60.9815 39.4058H61.8594C62.2065 39.2629 62.1044 38.8137 62.1044 38.8137L62.5536 38.7525L62.6148 38.9974C62.6148 38.9974 63.2273 39.0587 63.2886 38.9566C63.3498 38.8545 63.4927 38.6095 63.6561 38.7116C63.8194 38.8137 64.3706 38.4666 64.3706 38.4666C64.4115 38.2216 65.2486 38.3237 65.2486 38.3237L65.3506 38.0175C65.3506 38.0175 64.779 37.2212 64.6769 37.2212C64.5748 37.2212 64.0236 36.7312 63.9623 36.915C63.4111 36.7721 63.4519 36.0167 63.4519 36.0167L63.2477 35.5267C63.2477 35.2408 62.7373 34.6692 62.6353 34.7304C62.1248 34.3425 62.4923 33.9138 62.6353 33.8729C62.7782 33.8321 63.1048 33.3625 63.1048 33.3625L63.2682 32.8725L63.8398 32.7092L63.9011 32.26L63.5948 32.2192C63.5948 32.2192 63.9419 31.6067 64.1052 31.6067C64.2686 31.6067 65.3915 31.6067 65.4935 31.5455C65.5956 31.4842 65.7998 30.933 65.7998 30.8309C65.7998 30.7288 66.0652 30.688 66.1673 30.6676C66.2694 30.6267 66.5144 30.3613 66.5756 30.2184C66.7594 29.8713 66.5348 29.0138 66.3919 29.1567Z" fill="#0F1A2E"/>
<path d="M47.5884 41.5699C47.6292 41.5291 47.6905 41.7333 47.7926 41.6924C47.8946 41.672 47.9355 41.8762 47.8334 41.8762C47.7313 41.8762 47.7313 41.9987 47.7313 42.0599C47.7313 42.1212 47.7313 42.2437 47.6496 42.3253C47.568 42.407 47.5067 42.3458 47.4046 42.3049C47.3026 42.2437 47.2617 42.2437 47.1188 42.2437C46.9963 42.2437 47.0984 42.4478 47.0984 42.4478C47.0984 42.4478 46.5676 42.4274 46.6697 42.3458C46.7717 42.2641 46.8738 42.2437 46.7922 42.1824C46.7105 42.1212 46.7922 42.0803 46.7922 41.9783C46.7922 41.8762 47.0371 41.917 46.9759 41.8558C46.8942 41.7741 46.9759 41.4883 47.0984 41.6516L47.1801 41.4679C47.0984 41.3862 47.1596 41.3658 46.9963 41.3045C46.8534 41.2433 46.9759 40.937 46.9759 40.937L46.9963 40.7329C47.0372 40.4674 47.5476 40.447 47.5884 40.6716C47.6088 40.8962 47.5884 41.0595 47.5884 41.0595L47.7313 41.1208C47.7313 41.1208 47.7109 41.2841 47.5884 41.2841C47.4659 41.2841 47.5884 41.3658 47.5067 41.4474L47.5884 41.5699Z" fill="#0F1A2E"/>
<path d="M45.9143 41.8354C45.996 41.672 46.1593 41.0187 46.3635 41.2228C46.5676 41.427 46.6901 41.2228 46.6901 41.2228C46.6901 41.2228 46.7922 41.3249 46.731 41.5291C46.6901 41.7333 46.6289 41.9374 46.5064 41.9783C46.3839 41.9987 46.2818 42.0804 46.1185 42.1008C45.996 42.1212 45.9143 41.8354 45.9143 41.8354Z" fill="#0F1A2E"/>
</g>
<path d="M5.7233 86.3942V91.4342C5.7233 91.9382 5.8473 92.3262 6.0953 92.5982C6.3433 92.8702 6.7073 93.0062 7.1873 93.0062C7.6673 93.0062 8.0353 92.8702 8.2913 92.5982C8.5473 92.3262 8.6753 91.9382 8.6753 91.4342V86.3942H10.7273V91.4222C10.7273 92.1742 10.5673 92.8102 10.2473 93.3302C9.9273 93.8502 9.4953 94.2422 8.9513 94.5062C8.4153 94.7702 7.8153 94.9022 7.1513 94.9022C6.4873 94.9022 5.8913 94.7742 5.3633 94.5182C4.8433 94.2542 4.4313 93.8622 4.1273 93.3422C3.8233 92.8142 3.6713 92.1742 3.6713 91.4222V86.3942H5.7233ZM16.2482 88.0502C17.0322 88.0502 17.6562 88.3062 18.1202 88.8182C18.5922 89.3222 18.8282 90.0182 18.8282 90.9062V94.8182H16.7882V91.1822C16.7882 90.7342 16.6722 90.3862 16.4402 90.1382C16.2082 89.8902 15.8962 89.7662 15.5042 89.7662C15.1122 89.7662 14.8002 89.8902 14.5682 90.1382C14.3362 90.3862 14.2202 90.7342 14.2202 91.1822V94.8182H12.1682V88.1222H14.2202V89.0102C14.4282 88.7142 14.7082 88.4822 15.0602 88.3142C15.4122 88.1382 15.8082 88.0502 16.2482 88.0502ZM21.2862 87.4262C20.9262 87.4262 20.6302 87.3222 20.3982 87.1142C20.1742 86.8982 20.0622 86.6342 20.0622 86.3222C20.0622 86.0022 20.1742 85.7382 20.3982 85.5302C20.6302 85.3142 20.9262 85.2062 21.2862 85.2062C21.6382 85.2062 21.9262 85.3142 22.1502 85.5302C22.3822 85.7382 22.4982 86.0022 22.4982 86.3222C22.4982 86.6342 22.3822 86.8982 22.1502 87.1142C21.9262 87.3222 21.6382 87.4262 21.2862 87.4262ZM22.3062 88.1222V94.8182H20.2542V88.1222H22.3062ZM27.5252 93.0782V94.8182H26.4812C25.7372 94.8182 25.1572 94.6382 24.7412 94.2782C24.3252 93.9102 24.1172 93.3142 24.1172 92.4902V89.8262H23.3012V88.1222H24.1172V86.4902H26.1692V88.1222H27.5132V89.8262H26.1692V92.5142C26.1692 92.7142 26.2172 92.8582 26.3132 92.9462C26.4092 93.0342 26.5692 93.0782 26.7932 93.0782H27.5252ZM34.9802 91.3622C34.9802 91.5542 34.9682 91.7542 34.9442 91.9622H30.3002C30.3322 92.3782 30.4642 92.6982 30.6962 92.9222C30.9362 93.1382 31.2282 93.2462 31.5722 93.2462C32.0842 93.2462 32.4402 93.0302 32.6402 92.5982H34.8242C34.7122 93.0382 34.5082 93.4342 34.2122 93.7862C33.9242 94.1382 33.5602 94.4142 33.1202 94.6142C32.6802 94.8142 32.1882 94.9142 31.6442 94.9142C30.9882 94.9142 30.4042 94.7742 29.8922 94.4942C29.3802 94.2142 28.9802 93.8142 28.6922 93.2942C28.4042 92.7742 28.2602 92.1662 28.2602 91.4702C28.2602 90.7742 28.4002 90.1662 28.6802 89.6462C28.9682 89.1262 29.3682 88.7262 29.8802 88.4462C30.3922 88.1662 30.9802 88.0262 31.6442 88.0262C32.2922 88.0262 32.8682 88.1622 33.3722 88.4342C33.8762 88.7062 34.2682 89.0942 34.5482 89.5982C34.8362 90.1022 34.9802 90.6902 34.9802 91.3622ZM32.8802 90.8222C32.8802 90.4702 32.7602 90.1902 32.5202 89.9822C32.2802 89.7742 31.9802 89.6702 31.6202 89.6702C31.2762 89.6702 30.9842 89.7702 30.7442 89.9702C30.5122 90.1702 30.3682 90.4542 30.3122 90.8222H32.8802ZM35.6548 91.4582C35.6548 90.7702 35.7828 90.1662 36.0388 89.6462C36.3028 89.1262 36.6588 88.7262 37.1068 88.4462C37.5548 88.1662 38.0548 88.0262 38.6068 88.0262C39.0468 88.0262 39.4468 88.1182 39.8068 88.3022C40.1748 88.4862 40.4628 88.7342 40.6708 89.0462V85.9382H42.7228V94.8182H40.6708V93.8582C40.4788 94.1782 40.2028 94.4342 39.8428 94.6262C39.4908 94.8182 39.0788 94.9142 38.6068 94.9142C38.0548 94.9142 37.5548 94.7742 37.1068 94.4942C36.6588 94.2062 36.3028 93.8022 36.0388 93.2822C35.7828 92.7542 35.6548 92.1462 35.6548 91.4582ZM40.6708 91.4702C40.6708 90.9582 40.5268 90.5542 40.2388 90.2582C39.9588 89.9622 39.6148 89.8142 39.2068 89.8142C38.7988 89.8142 38.4508 89.9622 38.1628 90.2582C37.8828 90.5462 37.7428 90.9462 37.7428 91.4582C37.7428 91.9702 37.8828 92.3782 38.1628 92.6822C38.4508 92.9782 38.7988 93.1262 39.2068 93.1262C39.6148 93.1262 39.9588 92.9782 40.2388 92.6822C40.5268 92.3862 40.6708 91.9822 40.6708 91.4702ZM54.2863 94.8182H52.2343L48.8023 89.6222V94.8182H46.7503V86.3942H48.8023L52.2343 91.6142V86.3942H54.2863V94.8182ZM55.3657 91.4582C55.3657 90.7702 55.4937 90.1662 55.7497 89.6462C56.0137 89.1262 56.3697 88.7262 56.8177 88.4462C57.2657 88.1662 57.7657 88.0262 58.3177 88.0262C58.7897 88.0262 59.2017 88.1222 59.5537 88.3142C59.9137 88.5062 60.1897 88.7582 60.3817 89.0702V88.1222H62.4337V94.8182H60.3817V93.8702C60.1817 94.1822 59.9017 94.4342 59.5417 94.6262C59.1897 94.8182 58.7777 94.9142 58.3057 94.9142C57.7617 94.9142 57.2657 94.7742 56.8177 94.4942C56.3697 94.2062 56.0137 93.8022 55.7497 93.2822C55.4937 92.7542 55.3657 92.1462 55.3657 91.4582ZM60.3817 91.4702C60.3817 90.9582 60.2377 90.5542 59.9497 90.2582C59.6697 89.9622 59.3257 89.8142 58.9177 89.8142C58.5097 89.8142 58.1617 89.9622 57.8737 90.2582C57.5937 90.5462 57.4537 90.9462 57.4537 91.4582C57.4537 91.9702 57.5937 92.3782 57.8737 92.6822C58.1617 92.9782 58.5097 93.1262 58.9177 93.1262C59.3257 93.1262 59.6697 92.9782 59.9497 92.6822C60.2377 92.3862 60.3817 91.9822 60.3817 91.4702ZM67.6502 93.0782V94.8182H66.6062C65.8622 94.8182 65.2822 94.6382 64.8662 94.2782C64.4502 93.9102 64.2422 93.3142 64.2422 92.4902V89.8262H63.4262V88.1222H64.2422V86.4902H66.2942V88.1222H67.6382V89.8262H66.2942V92.5142C66.2942 92.7142 66.3422 92.8582 66.4382 92.9462C66.5342 93.0342 66.6942 93.0782 66.9182 93.0782H67.6502ZM69.8252 87.4262C69.4652 87.4262 69.1692 87.3222 68.9372 87.1142C68.7132 86.8982 68.6012 86.6342 68.6012 86.3222C68.6012 86.0022 68.7132 85.7382 68.9372 85.5302C69.1692 85.3142 69.4652 85.2062 69.8252 85.2062C70.1772 85.2062 70.4652 85.3142 70.6892 85.5302C70.9212 85.7382 71.0372 86.0022 71.0372 86.3222C71.0372 86.6342 70.9212 86.8982 70.6892 87.1142C70.4652 87.3222 70.1772 87.4262 69.8252 87.4262ZM70.8452 88.1222V94.8182H68.7932V88.1222H70.8452ZM75.3803 94.9142C74.7243 94.9142 74.1323 94.7742 73.6043 94.4942C73.0843 94.2142 72.6723 93.8142 72.3683 93.2942C72.0723 92.7742 71.9243 92.1662 71.9243 91.4702C71.9243 90.7822 72.0763 90.1782 72.3803 89.6582C72.6843 89.1302 73.1003 88.7262 73.6283 88.4462C74.1563 88.1662 74.7483 88.0262 75.4043 88.0262C76.0603 88.0262 76.6523 88.1662 77.1803 88.4462C77.7083 88.7262 78.1243 89.1302 78.4283 89.6582C78.7323 90.1782 78.8843 90.7822 78.8843 91.4702C78.8843 92.1582 78.7283 92.7662 78.4163 93.2942C78.1123 93.8142 77.6923 94.2142 77.1563 94.4942C76.6283 94.7742 76.0363 94.9142 75.3803 94.9142ZM75.3803 93.1382C75.7723 93.1382 76.1043 92.9942 76.3763 92.7062C76.6563 92.4182 76.7963 92.0062 76.7963 91.4702C76.7963 90.9342 76.6603 90.5222 76.3883 90.2342C76.1243 89.9462 75.7963 89.8022 75.4043 89.8022C75.0043 89.8022 74.6723 89.9462 74.4083 90.2342C74.1443 90.5142 74.0123 90.9262 74.0123 91.4702C74.0123 92.0062 74.1403 92.4182 74.3963 92.7062C74.6603 92.9942 74.9883 93.1382 75.3803 93.1382ZM84.0529 88.0502C84.8369 88.0502 85.4609 88.3062 85.9249 88.8182C86.3969 89.3222 86.6329 90.0182 86.6329 90.9062V94.8182H84.5929V91.1822C84.5929 90.7342 84.4769 90.3862 84.2449 90.1382C84.0129 89.8902 83.7009 89.7662 83.3089 89.7662C82.9169 89.7662 82.6049 89.8902 82.3729 90.1382C82.1409 90.3862 82.0249 90.7342 82.0249 91.1822V94.8182H79.9729V88.1222H82.0249V89.0102C82.2329 88.7142 82.5129 88.4822 82.8649 88.3142C83.2169 88.1382 83.6129 88.0502 84.0529 88.0502ZM90.7829 94.9142C90.1989 94.9142 89.6789 94.8142 89.2229 94.6142C88.7669 94.4142 88.4069 94.1422 88.1429 93.7982C87.8789 93.4462 87.7309 93.0542 87.6989 92.6222H89.7269C89.7509 92.8542 89.8589 93.0422 90.0509 93.1862C90.2429 93.3302 90.4789 93.4022 90.7589 93.4022C91.0149 93.4022 91.2109 93.3542 91.3469 93.2582C91.4909 93.1542 91.5629 93.0222 91.5629 92.8622C91.5629 92.6702 91.4629 92.5302 91.2629 92.4422C91.0629 92.3462 90.7389 92.2422 90.2909 92.1302C89.8109 92.0182 89.4109 91.9022 89.0909 91.7822C88.7709 91.6542 88.4949 91.4582 88.2629 91.1942C88.0309 90.9222 87.9149 90.5582 87.9149 90.1022C87.9149 89.7182 88.0189 89.3702 88.2269 89.0582C88.4429 88.7382 88.7549 88.4862 89.1629 88.3022C89.5789 88.1182 90.0709 88.0262 90.6389 88.0262C91.4789 88.0262 92.1389 88.2342 92.6189 88.6502C93.1069 89.0662 93.3869 89.6182 93.4589 90.3062H91.5629C91.5309 90.0742 91.4269 89.8902 91.2509 89.7542C91.0829 89.6182 90.8589 89.5502 90.5789 89.5502C90.3389 89.5502 90.1549 89.5982 90.0269 89.6942C89.8989 89.7822 89.8349 89.9062 89.8349 90.0662C89.8349 90.2582 89.9349 90.4022 90.1349 90.4982C90.3429 90.5942 90.6629 90.6902 91.0949 90.7862C91.5909 90.9142 91.9949 91.0422 92.3069 91.1702C92.6189 91.2902 92.8909 91.4902 93.1229 91.7702C93.3629 92.0422 93.4869 92.4102 93.4949 92.8742C93.4949 93.2662 93.3829 93.6182 93.1589 93.9302C92.9429 94.2342 92.6269 94.4742 92.2109 94.6502C91.8029 94.8262 91.3269 94.9142 90.7829 94.9142Z" fill="#0F1A2E"/>
<defs>
<clipPath id="clip0">
<rect width="95.1812" height="80.8081" fill="white"/>
</clipPath>
</defs>
</svg>
