<svg width="35" height="35" viewBox="0 0 35 35" fill="none" xmlns="http://www.w3.org/2000/svg">
<path fill-rule="evenodd" clip-rule="evenodd" d="M0 17.5C0 7.83502 7.83502 0 17.5 0C27.165 0 35 7.83502 35 17.5C35 27.165 27.165 35 17.5 35C7.83502 35 0 27.165 0 17.5ZM20.349 10.326C21.0171 9.4635 21.5237 8.24439 21.3405 6.99997C20.2484 7.07587 18.9719 7.77457 18.2271 8.68529C17.5481 9.51049 16.9901 10.738 17.2081 11.9294C18.4019 11.9668 19.6341 11.2512 20.349 10.326ZM25.6573 13.8738C22.2182 15.7699 22.775 20.7102 26.25 22.0318C25.7722 23.0967 25.5423 23.5725 24.9268 24.5158C24.0682 25.8325 22.8576 27.472 21.356 27.484C20.7388 27.4907 20.3337 27.3039 19.8969 27.1024C19.3905 26.8689 18.8416 26.6157 17.8703 26.6215C16.9046 26.6267 16.3469 26.8768 15.8337 27.107C15.3854 27.308 14.9711 27.4938 14.3486 27.4877C12.8482 27.4744 11.701 25.9951 10.8424 24.6784C8.44034 20.9994 8.18768 16.6807 9.66893 14.3834C10.7227 12.7523 12.3847 11.7982 13.9462 11.7982C14.7781 11.7982 15.4486 12.0386 16.0874 12.2676C16.6688 12.4761 17.2241 12.6752 17.8511 12.6752C18.4313 12.6752 18.9084 12.4935 19.4288 12.2953C20.0533 12.0574 20.7402 11.7958 21.7428 11.7958C23.1342 11.7958 24.6083 12.5583 25.6573 13.8738Z" fill="#000815"/>
</svg>
