<svg width="41" height="38" viewBox="0 0 41 38" fill="none" xmlns="http://www.w3.org/2000/svg">
<path d="M3 16.1387V18.8622V16.1387Z" fill="#000815"/>
<path d="M3 16.1387V18.8622" stroke="#000815" stroke-width="5" stroke-linecap="round"/>
<path d="M38 16.1387V18.8622V16.1387Z" fill="#000815"/>
<path d="M38 16.1387V18.8622" stroke="#000815" stroke-width="5" stroke-linecap="round"/>
<path d="M11.75 7.96826V16.8765V7.96826ZM11.75 24.3096V27.0331V24.3096Z" fill="#000815"/>
<path d="M11.75 24.3096V27.0331M11.75 7.96826V16.8765V7.96826Z" stroke="#000815" stroke-width="5" stroke-linecap="round"/>
<path d="M29.25 18.1243V27.0326V18.1243ZM29.25 7.96729V10.6909V7.96729Z" fill="#000815"/>
<path d="M29.25 7.96729V10.6909M29.25 18.1243V27.0326V18.1243Z" stroke="#000815" stroke-width="5" stroke-linecap="round"/>
<path d="M20.5 10.2377V24.7631V10.2377ZM20.5 0V2.72357V0ZM20.5 32.2764V35V32.2764Z" fill="#000815"/>
<path d="M20.5 32.2764V35M20.5 10.2377V24.7631V10.2377ZM20.5 0V2.72357V0Z" stroke="#000815" stroke-width="5" stroke-linecap="round"/>
</svg>
