<svg width="200" height="60" viewBox="0 0 200 60" fill="none" xmlns="http://www.w3.org/2000/svg">
<g clip-path="url(#clip0)">
<path fill-rule="evenodd" clip-rule="evenodd" d="M123.519 46.9218C111.948 55.4499 95.1783 60 80.7395 60C60.4939 60 42.2678 52.5119 28.4789 40.0578C27.3956 39.0784 28.3663 37.7437 29.6663 38.5064C44.5471 47.1645 62.9466 52.3732 81.9528 52.3732C94.771 52.3732 108.872 49.7212 121.837 44.2178C123.796 43.3858 125.434 45.5005 123.519 46.9218Z" fill="#0F1A2E"/>
<path fill-rule="evenodd" clip-rule="evenodd" d="M128.329 41.4185C126.855 39.5292 118.553 40.5259 114.826 40.9679C113.69 41.1065 113.517 40.1185 114.54 39.4078C121.153 34.7538 132.003 36.0972 133.269 37.6572C134.534 39.2259 132.939 50.1026 126.725 55.294C125.772 56.0913 124.862 55.6667 125.287 54.6093C126.682 51.1253 129.811 43.3166 128.329 41.4185Z" fill="#0F1A2E"/>
<path fill-rule="evenodd" clip-rule="evenodd" d="M115.086 6.55209V2.02804C115.086 1.34337 115.606 0.884033 116.23 0.884033H136.484C137.134 0.884033 137.654 1.35204 137.654 2.02804V5.90208C137.645 6.55209 137.099 7.40143 136.129 8.74478L125.633 23.7296C129.533 23.6343 133.65 24.2149 137.186 26.2083C137.983 26.659 138.2 27.3176 138.261 27.9676V32.795C138.261 33.4537 137.533 34.225 136.77 33.8264C130.539 30.559 122.262 30.2037 115.372 33.861C114.67 34.2424 113.933 33.4797 113.933 32.821V28.2363C113.933 27.4996 113.942 26.243 114.678 25.1249L126.838 7.68744H116.256C115.606 7.68744 115.086 7.2281 115.086 6.55209Z" fill="#0F1A2E"/>
<path fill-rule="evenodd" clip-rule="evenodd" d="M41.2018 34.7797H35.0397C34.4504 34.7364 33.9824 34.2944 33.939 33.731V2.10604C33.939 1.47336 34.4677 0.970687 35.1264 0.970687H40.8724C41.4704 0.99667 41.9471 1.45602 41.9904 2.02803V6.16208H42.1031C43.6025 2.1667 46.4192 0.303345 50.2152 0.303345C54.0719 0.303345 56.4813 2.1667 58.2146 6.16208C59.7053 2.1667 63.094 0.303345 66.7254 0.303345C69.3081 0.303345 72.1334 1.36936 73.8581 3.76138C75.8081 6.42207 75.4095 10.2874 75.4095 13.6762L75.4008 33.6357C75.4008 34.2684 74.8721 34.7797 74.2134 34.7797H68.06C67.4447 34.7364 66.9507 34.2424 66.9507 33.6357V16.8742C66.9507 15.5395 67.072 12.2115 66.7774 10.9461C66.318 8.82277 64.94 8.22476 63.1547 8.22476C61.664 8.22476 60.104 9.22144 59.4713 10.8161C58.8386 12.4108 58.8993 15.0802 58.8993 16.8742V33.6357C58.8993 34.2684 58.3706 34.7797 57.7119 34.7797H51.5585C50.9345 34.7364 50.4492 34.2424 50.4492 33.6357L50.4405 16.8742C50.4405 13.3468 51.0212 8.15543 46.6445 8.15543C42.2158 8.15543 42.3891 13.2168 42.3891 16.8742V33.6357C42.3891 34.2684 41.8604 34.7797 41.2018 34.7797" fill="#0F1A2E"/>
<path fill-rule="evenodd" clip-rule="evenodd" d="M155.092 0.303345C164.235 0.303345 169.184 8.15543 169.184 18.1395C169.184 27.7856 163.715 35.4384 155.092 35.4384C146.113 35.4384 141.225 27.5863 141.225 17.8015C141.225 7.95609 146.174 0.303345 155.092 0.303345ZM155.144 6.76008C150.602 6.76008 150.316 12.9481 150.316 16.8049C150.316 20.6702 150.256 28.921 155.092 28.921C159.867 28.921 160.092 22.2649 160.092 18.2089C160.092 15.5395 159.98 12.3501 159.174 9.81944C158.48 7.61809 157.102 6.76008 155.144 6.76008Z" fill="#0F1A2E"/>
<path fill-rule="evenodd" clip-rule="evenodd" d="M181.04 34.7797H174.904C174.288 34.7364 173.794 34.2424 173.794 33.6357L173.786 2.00203C173.838 1.42136 174.349 0.970687 174.973 0.970687H180.684C181.222 0.99667 181.664 1.36069 181.785 1.8547V6.69074H181.898C183.623 2.36603 186.041 0.303345 190.296 0.303345C193.061 0.303345 195.756 1.30002 197.489 4.03005C199.101 6.56074 199.101 10.8161 199.101 13.8755V33.783C199.032 34.3377 198.521 34.7797 197.914 34.7797H191.735C191.171 34.7364 190.703 34.3204 190.643 33.783V16.6055C190.643 13.1475 191.041 8.08609 186.786 8.08609C185.287 8.08609 183.909 9.09144 183.224 10.6168C182.357 12.5495 182.244 14.4735 182.244 16.6055V33.6357C182.236 34.2684 181.698 34.7797 181.04 34.7797" fill="#0F1A2E"/>
<path fill-rule="evenodd" clip-rule="evenodd" d="M98.9397 19.6735C98.9397 22.0742 99.0004 24.0763 97.787 26.2083C96.8077 27.9416 95.2477 29.0076 93.523 29.0076C91.157 29.0076 89.7703 27.2049 89.7703 24.5443C89.7703 19.2922 94.4763 18.3389 98.9397 18.3389V19.6735ZM105.154 34.693C104.746 35.057 104.157 35.083 103.698 34.8404C101.652 33.1417 101.28 32.353 100.162 30.7323C96.7817 34.1817 94.381 35.213 90.0043 35.213C84.8129 35.213 80.7828 32.015 80.7828 25.6103C80.7828 20.6096 83.4869 17.2035 87.3522 15.5395C90.6976 14.0661 95.369 13.8061 98.9397 13.3988V12.6015C98.9397 11.1368 99.0524 9.40343 98.1857 8.13809C97.4404 7.00274 96.0017 6.53473 94.7277 6.53473C92.379 6.53473 90.2903 7.73941 89.7789 10.2354C89.6749 10.7901 89.2676 11.3361 88.7043 11.3621L82.7329 10.7208C82.2302 10.6081 81.6668 10.2008 81.8142 9.42944C83.1835 2.18403 89.7356 0 95.5943 0C98.593 0 102.51 0.797343 104.876 3.06803C107.875 5.86739 107.589 9.60277 107.589 13.6675V23.2702C107.589 26.1563 108.785 27.4216 109.912 28.9816C110.302 29.5363 110.389 30.2036 109.886 30.6196C108.629 31.6683 106.393 33.6184 105.162 34.7104L105.154 34.693" fill="#0F1A2E"/>
<path fill-rule="evenodd" clip-rule="evenodd" d="M18.1569 19.6738C18.1569 22.0745 18.2175 24.0765 17.0042 26.2085C16.0248 27.9419 14.4735 29.0079 12.7401 29.0079C10.3741 29.0079 8.99609 27.2052 8.99609 24.5445C8.99609 19.2924 13.7021 18.3391 18.1569 18.3391V19.6738ZM24.3709 34.6933C23.9636 35.0573 23.3742 35.0833 22.9149 34.8406C20.8695 33.1419 20.5055 32.3533 19.3789 30.7326C15.9988 34.1819 13.6068 35.2133 9.22142 35.2133C4.0387 35.2133 0 32.0152 0 25.6105C0 20.6098 2.71269 17.2038 6.5694 15.5397C9.91476 14.0664 14.5861 13.8064 18.1569 13.3991V12.6017C18.1569 11.137 18.2695 9.40367 17.4115 8.13833C16.6575 7.00298 15.2188 6.53498 13.9535 6.53498C11.6048 6.53498 9.50743 7.73966 8.99609 10.2357C8.89209 10.7904 8.48475 11.3364 7.93008 11.3624L1.95002 10.721C1.44735 10.6084 0.892674 10.201 1.03134 9.42968C2.40936 2.18427 8.95275 0.000244141 14.8115 0.000244141C17.8102 0.000244141 21.7276 0.797587 24.0936 3.06828C27.0923 5.86764 26.8063 9.60301 26.8063 13.6677V23.2705C26.8063 26.1565 28.0023 27.4219 29.129 28.9819C29.5276 29.5365 29.6143 30.2039 29.1116 30.6199C27.8549 31.6686 25.6189 33.6186 24.3882 34.7106L24.3709 34.6932" fill="#0F1A2E"/>
</g>
<defs>
<clipPath id="clip0">
<rect width="199.101" height="60" fill="white"/>
</clipPath>
</defs>
</svg>
