<svg width="220" height="90" viewBox="0 0 220 90" fill="none" xmlns="http://www.w3.org/2000/svg">
<g clip-path="url(#clip0)">
<path d="M187.253 34.6352L219.742 14.3777V19.8712L187.253 40.2146L154.721 19.8712V14.3777L187.253 34.6352Z" fill="#0F1A2E"/>
<path d="M187.253 9.22742C179.914 9.22742 173.476 12.9184 169.785 18.6265C170.086 18.3261 170.258 18.1544 170.558 17.9399C179.7 10.3433 192.876 12.06 200.043 21.6308L204.807 18.5836C201.03 13.0472 194.549 9.22742 187.253 9.22742Z" fill="#0F1A2E"/>
<path d="M187.253 18.6267C183.262 18.6267 179.742 20.6439 177.639 23.5623C179.356 22.3177 181.33 21.6739 183.433 21.6739C186.953 21.6739 190.086 23.4765 192.189 26.5237L196.738 23.6911C194.764 20.5581 191.245 18.6267 187.253 18.6267Z" fill="#0F1A2E"/>
<path d="M165.279 10.3863C178.669 -0.171669 197.596 2.70386 207.682 16.7382L207.768 16.824L212.704 13.7768C207.296 5.49355 197.897 0 187.253 0C176.695 0 167.296 5.40771 161.802 13.7768C162.79 12.6609 164.034 11.3305 165.279 10.3863Z" fill="#0F1A2E"/>
<path d="M7.9828 81.3734C7.68237 81.8455 7.29611 82.2317 6.73817 82.5322C6.18023 82.8326 5.57936 83.0043 4.84975 83.0043C4.37765 83.0043 3.99138 82.9184 3.51928 82.8326C3.13302 82.7467 2.74675 82.5322 2.57508 82.2747C2.27465 81.9742 2.10297 81.8026 1.88838 81.4163C1.71671 81.03 1.58795 80.6437 1.58795 80.2575C1.58795 79.4849 1.75963 78.927 2.14589 78.5407C2.53216 78.1545 3.00426 77.854 3.64804 77.6824C4.20598 77.5107 4.97851 77.382 5.6652 77.2961C6.43774 77.2103 7.16735 77.2103 7.85404 77.2103V76.6524C7.85404 75.9657 7.68237 75.4077 7.29611 75.0214C6.90984 74.6352 6.3519 74.4635 5.6652 74.4635C4.97851 74.4635 4.33473 74.5493 4.0343 74.9356C3.73387 75.3219 3.47636 75.6223 3.3476 76.1802C3.17593 76.1802 2.87551 76.0944 2.78967 76.0944C2.70383 76.0944 2.31757 76.0944 2.23173 76.0944C2.31757 75.236 2.70383 74.5923 3.39053 74.0772C3.94847 73.6051 4.89267 73.3905 5.96563 73.3905C7.12443 73.3905 7.9828 73.6909 8.54074 74.2489C9.09868 74.8068 9.39911 75.6652 9.39911 76.824V82.7038H8.54074L7.9828 81.3734ZM7.89696 78.1545C7.12443 78.1545 6.39481 78.2403 5.70812 78.2403C5.15018 78.3262 4.54932 78.3261 4.20597 78.5407C3.81971 78.7124 3.43344 78.8412 3.26177 79.0987C3.09009 79.3991 2.96134 79.6566 2.96134 80.1287C2.96134 80.6867 3.13302 81.073 3.43345 81.3734C3.73388 81.6738 4.20597 81.8455 4.84975 81.8455C5.32185 81.8455 5.79396 81.7596 6.18022 81.545C6.56649 81.4592 6.86692 81.1588 7.12443 80.9871C7.42486 80.6867 7.59653 80.4291 7.68237 80.0429C7.76821 79.6566 7.85404 79.2704 7.85404 78.8841L7.89696 78.1545Z" fill="#0F1A2E"/>
<path d="M12.2747 73.691H13.0472L13.5193 75.1931C13.9056 74.6352 14.2918 74.2489 14.8498 73.8626C15.4077 73.5622 16.0086 73.3905 16.5665 73.3905C17.5965 73.3905 18.3691 73.6909 18.927 74.2489C19.3991 74.8068 19.6996 75.6652 19.6996 76.7382V82.7467H18.4549V76.9528C18.4549 76.1802 18.2832 75.5365 17.9828 75.1502C17.6824 74.7639 17.1244 74.5922 16.4807 74.5922C16.0086 74.5922 15.5365 74.6781 15.1502 74.8926C14.7639 75.0643 14.4635 75.3648 14.2918 75.6652C13.9914 75.9656 13.9056 76.4377 13.8197 76.824C13.7339 77.2961 13.7339 77.7682 13.7339 78.2403V82.7038H12.4034L12.2747 73.691Z" fill="#0F1A2E"/>
<path d="M98.8412 79.7425C98.7554 80.6867 98.3691 81.545 97.6824 82.103C96.9957 82.6609 96.1803 83.0472 95.1073 83.0472C94.4206 83.0472 93.7768 82.9614 93.3047 82.6609C92.8326 82.3605 92.3605 82.103 91.9743 81.7167C91.588 81.2446 91.4163 80.7725 91.2017 80.2146C91.0301 79.6566 90.9013 78.9699 90.9013 78.3261C90.9013 77.6394 90.9871 76.9957 91.2017 76.4378C91.3734 75.8798 91.6738 75.279 91.9743 74.9356C92.2747 74.5923 92.7468 74.1631 93.3047 73.9056C93.7768 73.6051 94.4635 73.5193 95.1073 73.5193C95.5794 73.5193 96.0515 73.6051 96.5236 73.8197C96.9957 73.9914 97.2962 74.206 97.6824 74.5064C97.9828 74.8069 98.2404 75.0644 98.4549 75.4506C98.6695 75.8369 98.7554 76.2231 98.7554 76.7811H97.4249C97.3391 76.2231 97.1245 75.6223 96.7382 75.2789C96.3519 74.9356 95.794 74.721 95.1073 74.721C94.5494 74.721 94.1631 74.8068 93.7768 75.0214C93.3906 75.1931 93.2189 75.4936 92.9185 75.794C92.7468 76.0944 92.5322 76.5665 92.4464 76.9528C92.3605 77.339 92.3605 77.8111 92.3605 78.2832C92.3605 78.7553 92.4464 79.2274 92.4464 79.6137C92.4464 79.9999 92.7468 80.3862 92.9185 80.7725C93.0901 81.1588 93.3906 81.3304 93.7768 81.545C94.1631 81.7167 94.5494 81.8455 95.1073 81.8455C95.8798 81.8455 96.4378 81.6738 96.7382 81.2875C97.1245 80.8154 97.2961 80.3433 97.5107 79.7854H98.8412V79.7425Z" fill="#0F1A2E"/>
<path d="M104.936 83.0042C104.249 83.0042 103.605 82.9183 103.133 82.6179C102.661 82.3175 102.189 82.06 101.803 81.6737C101.416 81.2016 101.245 80.7295 101.03 80.1716C100.858 79.6136 100.73 78.9269 100.73 78.2832C100.73 77.6394 100.815 76.9527 101.03 76.3947C101.202 75.8368 101.502 75.2359 101.803 74.8926C102.103 74.4205 102.575 74.1201 103.133 73.9484C103.605 73.648 104.292 73.5621 104.936 73.5621C105.579 73.5621 106.266 73.648 106.738 73.9484C107.21 74.2488 107.682 74.5063 108.069 74.8926C108.369 75.3647 108.627 75.8368 108.841 76.3947C109.013 76.9527 109.142 77.6394 109.142 78.2832C109.142 78.9269 109.056 79.6136 108.841 80.1716C108.669 80.7295 108.369 81.3304 108.069 81.6737C107.682 82.1458 107.296 82.4462 106.738 82.6179C106.18 82.8754 105.579 83.0042 104.936 83.0042ZM104.936 81.8454C105.494 81.8454 105.88 81.7596 106.266 81.545C106.652 81.3733 106.953 81.0729 107.124 80.7725C107.296 80.472 107.511 79.9999 107.596 79.6136C107.682 79.1415 107.682 78.7553 107.682 78.2832C107.682 77.8111 107.596 77.339 107.596 76.9527C107.511 76.4806 107.296 76.1802 107.124 75.7939C106.953 75.4077 106.652 75.236 106.266 75.0214C105.88 74.8497 105.494 74.721 104.936 74.721C104.378 74.721 103.991 74.8068 103.605 75.0214C103.219 75.193 103.047 75.4935 102.747 75.7939C102.446 76.0944 102.36 76.5664 102.275 76.9527C102.189 77.4248 102.189 77.8111 102.189 78.2832C102.189 78.7553 102.275 79.2274 102.275 79.6136C102.36 80.0857 102.575 80.472 102.747 80.7725C103.047 81.0729 103.219 81.3304 103.605 81.545C103.863 81.7596 104.378 81.8454 104.936 81.8454Z" fill="#0F1A2E"/>
<path d="M123.004 82.7896V76.9098C123.004 76.1373 122.918 75.4935 122.532 75.1931C122.232 74.8068 121.76 74.6351 121.116 74.6351C120.815 74.6351 120.558 74.7209 120.172 74.8068C119.871 74.8926 119.614 75.1072 119.399 75.3647C119.099 75.6652 118.927 75.9227 118.841 76.2231C118.755 76.5235 118.669 76.9098 118.669 77.3819V82.7896H117.339V76.9098C117.339 76.1373 117.253 75.5793 116.867 75.1931C116.566 74.8068 116.094 74.6351 115.451 74.6351C115.15 74.6351 114.764 74.721 114.506 74.9356C114.206 75.0214 113.948 75.3218 113.734 75.4935C113.433 75.7939 113.262 76.0514 113.176 76.4377C113.09 76.824 113.004 77.2102 113.004 77.7682V82.7038H111.674V73.7767H112.446L112.918 75.1931C113.219 74.6351 113.691 74.2488 114.163 73.9484C114.635 73.648 115.107 73.4763 115.794 73.4763C116.566 73.4763 117.124 73.648 117.511 73.9484C117.983 74.2488 118.283 74.7209 118.455 75.2789C118.755 74.7209 119.227 74.3347 119.7 73.9484C120.172 73.5621 120.858 73.4763 121.502 73.4763C122.446 73.4763 123.133 73.7767 123.691 74.2488C124.163 74.8068 124.463 75.5793 124.463 76.6093V82.7896H123.004Z" fill="#0F1A2E"/>
<path d="M127.253 73.691H128.112L128.584 75.0214C128.884 74.5493 129.356 74.0772 129.914 73.7768C130.386 73.4764 131.073 73.3047 131.631 73.3047C132.318 73.3047 132.875 73.3905 133.348 73.691C133.82 73.9914 134.206 74.2489 134.592 74.721C134.893 75.1931 135.15 75.6652 135.365 76.2232C135.451 76.7811 135.665 77.3819 135.665 78.0257C135.665 78.7124 135.579 79.3562 135.365 79.9141C135.193 80.4721 134.893 81.0729 134.592 81.4163C134.292 81.8884 133.82 82.1888 133.348 82.3605C132.875 82.6609 132.318 82.7467 131.631 82.7467C131.073 82.7467 130.472 82.6609 130 82.3605C129.528 82.06 129.056 81.8025 128.669 81.2017V85.9656H127.339V73.4335H127.253V73.691ZM128.498 78.0686C128.498 78.6266 128.584 79.2274 128.584 79.5708C128.669 80.0429 128.884 80.4291 129.056 80.8154C129.356 81.1158 129.528 81.3734 129.914 81.588C130.3 81.7596 130.687 81.8884 131.245 81.8884C132.189 81.8884 132.876 81.588 133.262 80.9442C133.734 80.2575 133.948 79.442 133.948 78.2832C133.948 77.1244 133.648 76.2661 133.176 75.6223C132.704 75.0644 132.017 74.6781 131.159 74.6781C130.687 74.6781 130.3 74.7639 129.914 74.9785C129.528 75.1502 129.227 75.4506 128.97 75.751C128.669 76.0514 128.498 76.4377 128.412 76.9098C128.584 77.0815 128.498 77.5536 128.498 78.0686Z" fill="#0F1A2E"/>
<path d="M143.519 81.3734C143.219 81.8455 142.833 82.2317 142.275 82.5322C141.717 82.8326 141.116 83.0043 140.386 83.0043C139.914 83.0043 139.528 82.9184 139.056 82.8326C138.669 82.7467 138.283 82.5322 138.112 82.2747C137.811 81.9742 137.639 81.8026 137.425 81.4163C137.253 81.03 137.124 80.6437 137.124 80.2575C137.124 79.4849 137.296 78.927 137.682 78.5407C138.069 78.1545 138.541 77.854 139.184 77.6824C139.742 77.5107 140.515 77.382 141.202 77.2961C141.974 77.2103 142.704 77.2103 143.39 77.2103V76.6524C143.39 75.9657 143.219 75.4077 142.833 75.0214C142.446 74.6352 141.888 74.4635 141.202 74.4635C140.515 74.4635 139.871 74.5493 139.571 74.9356C139.184 75.236 139.013 75.6223 138.884 76.1802C138.712 76.1802 138.412 76.0944 138.326 76.0944C138.154 76.0944 137.854 76.0944 137.768 76.0944C137.854 75.236 138.24 74.5923 138.927 74.0772C139.485 73.6051 140.429 73.3905 141.502 73.3905C142.661 73.3905 143.519 73.6909 144.077 74.2489C144.635 74.8068 144.936 75.6652 144.936 76.824V82.7038H143.905L143.519 81.3734ZM143.519 78.1545C142.747 78.1545 142.017 78.2403 141.33 78.2403C140.772 78.3262 140.172 78.3261 139.828 78.5407C139.442 78.7124 139.056 78.8412 138.884 79.0987C138.712 79.3991 138.584 79.6566 138.584 80.1287C138.584 80.6867 138.755 81.073 139.056 81.3734C139.356 81.6738 139.828 81.8455 140.472 81.8455C140.944 81.8455 141.416 81.7596 141.802 81.545C142.189 81.4592 142.489 81.1588 142.747 80.9871C143.047 80.6867 143.219 80.4291 143.305 80.0429C143.39 79.6566 143.476 79.2704 143.476 78.8841L143.519 78.1545Z" fill="#0F1A2E"/>
<path d="M147.897 73.691H148.67L149.142 75.1931C149.528 74.6352 149.914 74.2489 150.472 73.8626C151.03 73.4764 151.631 73.3905 152.189 73.3905C153.219 73.3905 153.991 73.6909 154.549 74.2489C155.021 74.8068 155.322 75.6652 155.322 76.7382V82.7467H153.991V76.9528C153.991 76.1802 153.82 75.5365 153.519 75.1502C153.219 74.7639 152.661 74.5922 152.017 74.5922C151.545 74.5922 151.073 74.6781 150.687 74.8926C150.3 75.0643 150 75.3648 149.828 75.6652C149.657 76.0515 149.442 76.4377 149.356 76.824C149.27 77.2961 149.27 77.7682 149.27 78.2403V82.7038H147.94L147.897 73.691Z" fill="#0F1A2E"/>
<path d="M157.597 86.0514C157.597 85.8798 157.682 85.6652 157.682 85.4935C157.682 85.3219 157.768 85.1072 157.768 84.9356C157.854 85.0214 158.069 85.0214 158.24 85.0214C158.412 85.0214 158.627 85.1073 158.798 85.1073C158.97 85.1073 159.27 85.0214 159.485 84.9356C159.657 84.8497 159.785 84.6352 159.957 84.4635C160.129 84.163 160.257 83.9914 160.343 83.6909C160.429 83.3905 160.644 83.0043 160.815 82.5322C160.257 81.03 159.571 79.4849 159.013 78.0686C158.455 76.6523 157.768 75.0214 157.124 73.6051H158.627C159.099 74.8497 159.571 76.1802 160.129 77.2961C160.601 78.5408 161.073 79.7854 161.631 80.9871C162.103 79.7425 162.575 78.412 163.047 77.2961C163.519 76.0515 163.991 74.8068 164.463 73.6051H165.88C165.322 75.236 164.635 76.824 164.077 78.3691C163.519 80 162.747 81.588 162.189 83.133C162.017 83.6051 161.803 83.9914 161.717 84.3777C161.545 84.7639 161.33 85.0643 161.159 85.3218C160.987 85.5794 160.687 85.794 160.386 85.8798C160.086 85.9656 159.7 86.0514 159.227 86.0514C158.927 86.0514 158.67 86.0515 158.455 85.9656C158.069 86.0515 157.768 86.1373 157.597 86.0514Z" fill="#0F1A2E"/>
<path d="M62.4463 86.309C59.0987 88.6695 54.2918 90 50.0858 90C44.2918 90 38.97 87.897 35.0644 84.3777C34.7639 84.0772 34.9785 83.6909 35.4506 83.9055C39.7425 86.3948 45.0644 87.8111 50.5579 87.8111C54.2489 87.8111 58.2403 87.0386 62.0601 85.5365C62.5322 85.3648 63.0043 85.9227 62.4463 86.309Z" fill="#0F1A2E"/>
<path d="M63.8627 84.8069C63.3906 84.249 61.0301 84.5064 59.9571 84.721C59.6567 84.8069 59.5708 84.4206 59.8713 84.2489C61.7597 82.9185 64.8927 83.3048 65.279 83.7769C65.6653 84.249 65.1931 87.2962 63.3906 88.7125C63.0901 89.0129 62.8326 88.7983 62.9185 88.5408C63.3906 87.4678 64.2489 85.3648 63.8627 84.8069Z" fill="#0F1A2E"/>
<path d="M59.9571 75.0214V73.691C59.9571 73.5193 60.0429 73.3905 60.2575 73.3905H66.0515C66.2232 73.3905 66.3519 73.4764 66.3519 73.691V74.8497C66.3519 75.0214 66.1802 75.3219 65.8798 75.6223L62.8326 79.7854C63.9914 79.7854 65.1931 79.8712 66.1802 80.4721C66.4807 80.5579 66.4807 80.7725 66.4807 80.9442V82.2747C66.4807 82.4463 66.309 82.6609 66.0086 82.5751C64.206 81.6309 61.8455 81.545 59.8283 82.5751C59.6566 82.6609 59.3562 82.4892 59.3562 82.2747V80.9442C59.3562 80.7725 59.3562 80.3863 59.6566 80.0858L63.1759 75.1502H60.2575C60.1717 75.279 59.9571 75.1931 59.9571 75.0214Z" fill="#0F1A2E"/>
<path d="M38.6695 83.0043H36.867C36.6953 83.0043 36.5665 82.9184 36.5665 82.7038V73.8626C36.5665 73.691 36.7382 73.5622 36.9528 73.5622H38.5837C38.7554 73.5622 38.8841 73.6481 38.8841 73.8626V75.0214H38.97C39.4421 73.8626 40.2146 73.3905 41.3305 73.3905C42.4893 73.3905 43.133 73.8626 43.691 75.0214C44.1631 73.8626 45.1073 73.3905 46.1803 73.3905C46.9528 73.3905 47.6824 73.691 48.2833 74.3347C48.8412 75.1073 48.7554 76.1373 48.7554 77.0815V82.7038C48.7554 82.8755 48.5837 83.0043 48.3691 83.0043H46.5665C46.3949 83.0043 46.2661 82.9184 46.2661 82.7038V77.9399C46.2661 77.5536 46.3519 76.6094 46.1803 76.309C46.0944 75.751 45.6223 75.5364 45.1502 75.5364C44.6781 75.5364 44.2918 75.8369 44.1202 76.309C43.9485 76.7811 43.9485 77.4678 43.9485 78.0257V82.7897C43.9485 82.9613 43.8627 83.0901 43.5622 83.0901H41.7597C41.588 83.0901 41.4592 83.0043 41.4592 82.7897V78.0257C41.4592 77.0815 41.6309 75.5364 40.3004 75.5364C38.97 75.5364 39.0558 76.9528 39.0558 78.0257V82.7897C39.0558 82.7897 38.8841 83.0043 38.6695 83.0043Z" fill="#0F1A2E"/>
<path d="M71.588 73.2189C74.2489 73.2189 75.6652 75.4077 75.6652 78.1545C75.6652 80.8154 74.0343 83.0042 71.588 83.0042C69.0129 83.0042 67.5966 80.8154 67.5966 78.0686C67.5966 75.4077 69.0129 73.2189 71.588 73.2189ZM71.588 75.1072C70.2575 75.1072 70.1717 76.824 70.1717 77.9399C70.1717 79.0558 70.1717 81.3734 71.5021 81.3734C72.8326 81.3734 72.9185 79.5708 72.9185 78.3261C72.9185 77.5536 72.8326 76.6952 72.618 75.9656C72.5322 75.2789 72.1459 75.1072 71.588 75.1072Z" fill="#0F1A2E"/>
<path d="M79.0558 83.0043H77.2532C77.0815 83.0043 76.9528 82.9184 76.9528 82.7038V73.8626C76.9528 73.691 77.1244 73.5622 77.339 73.5622H78.9699C79.1416 73.5622 79.2704 73.6481 79.2704 73.8626V75.1931H79.3562C79.8283 73.9485 80.515 73.3905 81.7167 73.3905C82.4892 73.3905 83.3476 73.6909 83.8197 74.4206C84.2918 75.1502 84.2918 76.309 84.2918 77.1673V82.7897C84.2918 82.9613 84.1201 83.0901 83.9056 83.0901H82.103C81.9313 83.0901 81.8026 83.0043 81.8026 82.7897V78.0257C81.8026 77.0815 81.8884 75.6652 80.6437 75.6652C80.1716 75.6652 79.7854 75.9657 79.6137 76.4378C79.3133 76.9957 79.3133 77.5965 79.3133 78.0686V82.8326C79.3562 82.7896 79.2704 83.0043 79.0558 83.0043Z" fill="#0F1A2E"/>
<path d="M58.3691 81.2017C58.0686 80.7296 57.6824 80.3433 57.6824 79.5708V76.9098C57.6824 75.751 57.7682 74.721 56.9098 73.9485C56.2231 73.3905 55.1072 73.0901 54.2489 73.0901C52.5321 73.0901 50.6437 73.7768 50.2575 75.751C50.2575 76.0514 50.4291 76.0514 50.5579 76.1373L52.2746 76.309C52.4463 76.309 52.4463 76.2232 52.5751 76.0086C52.6609 75.236 53.3476 74.9785 53.9914 74.9785C54.3776 74.9785 54.7639 75.1502 54.9356 75.4506C55.3218 75.751 55.236 76.2231 55.236 76.6952V76.9957C54.2918 77.0815 52.8755 77.0815 51.8884 77.5536C50.7296 78.0257 49.9999 78.9699 49.9999 80.3862C49.9999 82.103 51.1587 83.0471 52.6609 83.0471C53.9914 83.0471 54.6781 82.7468 55.6223 81.8025C56.0085 82.2747 56.0944 82.4892 56.6523 82.9613C56.824 82.9613 57.0386 82.9613 57.1244 82.8755C57.5107 82.5751 58.1545 82.0171 58.3691 81.6309C58.4549 81.545 58.4549 81.3734 58.3691 81.2017ZM55.4077 78.7124C55.4077 79.3991 55.4077 79.9571 55.1072 80.515C54.8068 80.9871 54.3347 81.2875 53.8626 81.2875C53.1759 81.2875 52.7038 80.8154 52.7038 80.0429C52.7038 78.5407 54.0343 78.3261 55.3648 78.3261V78.7124H55.4077Z" fill="#0F1A2E"/>
<path d="M35.1502 81.2017C34.8498 80.7296 34.4635 80.3433 34.4635 79.5708V76.9098C34.4635 75.751 34.5493 74.721 33.691 73.9485C33.0043 73.3905 31.8884 73.0901 31.03 73.0901C29.3133 73.0901 27.4249 73.7768 27.0386 75.751C27.0386 76.0514 27.2103 76.0514 27.339 76.1373L29.0558 76.309C29.2275 76.309 29.2275 76.2232 29.3562 76.0086C29.442 75.236 30.1287 74.9785 30.7725 74.9785C31.1588 74.9785 31.4592 75.1502 31.7167 75.4506C31.9742 75.751 31.8884 76.2231 31.8884 76.6952V76.9957C30.9442 77.0815 29.5279 77.0815 28.5408 77.5536C27.382 78.0257 26.6523 78.9699 26.6523 80.3862C26.6523 82.103 27.8111 83.0471 29.3133 83.0471C30.6438 83.0471 31.3305 82.7468 32.2747 81.8025C32.6609 82.2747 32.7468 82.4892 33.3047 82.9613C33.4764 82.9613 33.691 82.9613 33.7768 82.8755C34.1631 82.5751 34.8068 82.0171 35.1073 81.6309C35.279 81.545 35.279 81.3734 35.1502 81.2017ZM32.0172 78.7124C32.0172 79.3991 32.0172 79.9571 31.7167 80.515C31.4163 80.9871 30.9442 81.2875 30.4721 81.2875C29.7854 81.2875 29.3133 80.8154 29.3133 80.0429C29.3133 78.5407 30.6438 78.3261 31.9742 78.3261V78.7124H32.0172Z" fill="#0F1A2E"/>
<path d="M29.5708 51.4164V32.0172H35.9227V51.2018C35.9227 55.8799 39.8283 56.9957 42.0172 56.9957C46.7811 56.9957 48.3691 54.1631 48.3691 52.5322V32.0172H54.721V62.146H51.03L48.5408 58.7125C46.824 60.8155 43.9914 62.7039 39.7854 62.7039C33.7339 62.7468 29.5708 58.7554 29.5708 51.4164Z" fill="#0F1A2E"/>
<path d="M101.803 21.4162V62.1887H105.408L107.768 58.7552C109.485 60.8582 112.318 62.8325 116.524 62.8325C122.146 62.8325 126.867 59.399 126.867 51.8025V42.4892C126.867 34.8926 122.103 31.4591 116.223 31.4591C112.146 31.4591 109.399 33.2617 107.94 35.0643V21.3733L101.803 21.4162ZM114.721 57.0385C110.815 57.0385 107.983 55.1501 108.069 51.0299V42.7467C108.069 39.5278 110.644 37.0385 114.807 37.0385C117.768 37.0385 120.687 39.2274 120.687 42.7467V51.2016C120.687 54.9355 117.682 57.0385 114.721 57.0385Z" fill="#0F1A2E"/>
<path d="M78.0257 21.4163V35.1073C76.6094 33.3047 73.8626 31.5021 69.7425 31.5021C63.8626 31.5021 59.0987 34.9356 59.0987 42.5321V51.8455C59.0987 59.442 63.8626 62.8755 69.442 62.8755C73.6051 62.8755 76.4807 60.8583 78.1974 58.7983L80.5579 62.2317H84.1631V21.4592H78.0257V21.4163ZM65.279 51.3304V42.8755C65.279 39.3562 68.2403 37.1673 71.1588 37.1673C75.3219 37.1673 77.897 39.5278 77.897 42.8755V51.1588C77.9828 55.236 75.1502 57.1674 71.2446 57.1674C68.3262 57.0386 65.279 54.9356 65.279 51.3304Z" fill="#0F1A2E"/>
<path d="M131.159 21.4163H137.511V62.1888H131.159V21.4163Z" fill="#0F1A2E"/>
<path d="M96.2661 32.0602H89.9142V62.1889H96.2661V32.0602Z" fill="#0F1A2E"/>
<path d="M93.1331 28.4121C95.1242 28.4121 96.7383 26.798 96.7383 24.8069C96.7383 22.8159 95.1242 21.2018 93.1331 21.2018C91.142 21.2018 89.528 22.8159 89.528 24.8069C89.528 26.798 91.142 28.4121 93.1331 28.4121Z" fill="#0F1A2E"/>
<path d="M155.022 57.0386C150.644 57.0386 148.541 54.764 148.541 51.6309V49.1417H167.339V42.4035C167.339 35.4507 162.489 31.3734 154.979 31.3734C147.167 31.3734 142.146 35.7511 142.146 42.5751V51.8884C142.146 58.8412 147.167 62.9185 154.979 62.9185C160.773 62.9185 165.064 60.558 166.781 56.5665L162.232 53.7339C160.644 55.9228 158.326 57.0386 155.022 57.0386ZM148.541 42.4893C148.541 39.3563 150.73 37.1674 154.807 37.1674C158.884 37.1674 161.073 39.3563 161.073 42.4893V44.3777H148.627L148.541 42.4893Z" fill="#0F1A2E"/>
<path d="M13.2189 31.3734C7.03862 31.3734 3.04721 33.8627 1.54506 37.5537L6.48068 40.6009C8.58369 37.2532 10.5579 37.0816 13.2189 37.0816C17.1245 37.0816 18.8412 38.8842 18.8412 41.8455V44.206H13.4764C9.57081 44.206 0 45.5365 0 53.8198C0 59.6996 4.46352 62.661 9.87125 62.661C14.1631 62.661 17.2961 60.6438 19.0987 58.5837L21.588 62.0172H25.279V41.3734C25.1931 35.6653 21.2017 31.3734 13.2189 31.3734ZM18.7983 52.5751C18.7124 53.0472 18.7124 53.6052 18.1116 54.3777C17.1674 55.7082 14.6781 57.0386 11.8455 57.0386C8.79828 57.0386 6.60944 55.794 6.60944 53.3477C6.60944 49.7425 12.4034 48.97 16.0944 48.7983H18.8412L18.7983 52.5751Z" fill="#0F1A2E"/>
</g>
<defs>
<clipPath id="clip0">
<rect width="219.742" height="90" fill="white"/>
</clipPath>
</defs>
</svg>
