<svg width="162" height="80" viewBox="0 0 162 80" fill="none" xmlns="http://www.w3.org/2000/svg">
<path d="M46.9141 42.7362L38.3439 30.4841V42.7362H29.476V14.5396H38.3439V26.4627L47.1491 14.6179H57.6517L46.8567 27.9198L57.8188 42.7362H46.9141Z" fill="#0F1A2E"/>
<path d="M156.306 79.8214C159.175 79.8214 161.502 77.5209 161.502 74.6824C161.502 71.8445 159.175 69.5435 156.306 69.5435C153.436 69.5435 151.109 71.8445 151.109 74.6824C151.109 77.5209 153.436 79.8214 156.306 79.8214ZM65.8302 10.278C68.7 10.278 71.0267 7.97718 71.0267 5.13899C71.0267 2.3008 68.7 0 65.8302 0C62.9604 0 60.6338 2.3008 60.6338 5.13899C60.6338 7.97718 62.9604 10.278 65.8302 10.278Z" fill="#0F1A2E"/>
<path d="M70.2642 14.5396H61.3963V42.7361H70.2642V14.5396ZM61.2292 65.1774C61.2292 56.7743 66.4204 50.3611 74.5884 50.3611C78.6725 50.3611 81.8791 52.2882 83.3989 55.1449V51.1184H92.2668V79.2365H83.3989V75.2674C81.8791 78.0667 78.38 79.9938 74.4735 79.9938C66.0757 79.999 61.2292 73.6379 61.2292 65.1774ZM83.7488 65.1774C83.7488 61.1508 81.4718 57.8241 77.0378 57.8241C72.8963 57.8241 70.3268 60.9158 70.3268 65.1774C70.3268 69.4338 72.8911 72.5882 77.0378 72.5882C81.477 72.5882 83.7488 69.2614 83.7488 65.1774ZM97.4893 51.1183H106.415V57.0093C107.407 52.8104 110.734 50.6535 114.175 50.6535C115.225 50.6535 115.81 50.7109 116.51 50.8885L116.463 59.1662C115.413 59.0461 114.933 58.9939 113.825 58.9939C108.984 58.9939 106.415 62.1431 106.415 68.384V79.2365H97.4893V51.1183ZM118.317 65.1774C118.317 55.9596 124.328 50.3611 133.483 50.3611C142.236 50.3611 148.185 55.7873 148.185 63.7203C148.185 65.1774 148.127 66.0548 147.95 67.6268H127.18C127.352 71.3035 129.806 73.288 133.77 73.288C136.512 73.288 138.262 72.5308 139.019 70.7812H147.772C146.9 76.3223 141.239 79.999 133.77 79.999C124.208 79.999 118.317 74.5728 118.317 65.1774ZM139.379 62.0857C139.322 58.3515 137.222 56.367 133.431 56.367C129.582 56.367 127.247 58.644 127.19 62.0857H139.379ZM84.3442 34.3644V14.5396H75.4188V42.7361H97.0767V34.3644H84.3442ZM110.838 34.3644V14.5396H101.913V42.7361H123.571V34.3644H110.838ZM48.9196 51.1079V61.2344H38.2238V51.1079H29.476V79.3096H38.2238V69.3189H48.9196V79.3096H57.6726V51.1079H48.9196ZM18.4669 62.54L13.0146 61.0307C11.171 60.4823 10.5339 59.6728 10.5339 58.5291C10.5339 57.2809 11.5157 56.5445 12.7848 56.3983C14.6284 56.1842 16.0541 56.9832 16.0541 58.973V59.1036H25.4338V58.973H25.4286C25.4286 53.3588 20.6813 50.2618 12.7535 50.2618C5.52546 50.2618 0.746824 53.7714 0.746824 59.0931C0.746824 63.36 3.3111 66.2271 7.79727 67.3343L13.422 68.7444C15.0932 69.2719 15.7669 70.0918 15.7617 71.3766C15.7564 72.7814 14.3463 73.5753 12.9049 73.6432C10.8159 73.7372 9.29614 72.6039 9.18124 70.8021H0C0.135786 76.1813 5.40012 79.9624 13.2809 79.9624C20.7387 79.9624 25.58 76.5156 25.58 70.6663C25.5748 66.3995 22.8957 63.7099 18.4669 62.54ZM18.4669 26.0396L13.0146 24.5303C11.171 23.9819 10.5339 23.1724 10.5339 22.0287C10.5339 20.7805 11.5157 20.0441 12.7848 19.8979C14.6284 19.6838 16.0541 20.4828 16.0541 22.4726V22.6032H25.4338V22.4726H25.4286C25.4286 16.8584 20.6813 13.7614 12.7535 13.7614C5.52546 13.7614 0.746824 17.271 0.746824 22.5927C0.746824 26.8596 3.3111 29.7267 7.79727 30.8339L13.422 32.244C15.0932 32.7715 15.7669 33.5914 15.7617 34.8762C15.7564 36.281 14.3463 37.0749 12.9049 37.1428C10.8159 37.2368 9.29614 36.1035 9.18124 34.3017H0C0.135786 39.6809 5.40012 43.462 13.2809 43.462C20.7387 43.462 25.58 40.0152 25.58 34.1659C25.5748 29.8991 22.8957 27.2095 18.4669 26.0396Z" fill="#0F1A2E"/>
</svg>
