<svg width="241" height="60" viewBox="0 0 241 60" fill="none" xmlns="http://www.w3.org/2000/svg">
<path d="M1.20276 13.1085C1.20276 13.1085 7.1218 37.3631 8.06646 41.3C9.16904 45.895 11.1557 47.5862 16.8836 46.4457L20.5796 31.408C21.5164 27.6728 22.1447 25.0098 22.7468 21.2101H22.8527C23.2759 25.0471 23.8783 27.6839 24.6492 31.4211C24.6492 31.4211 26.1537 38.2478 26.9242 41.8334C27.6967 45.4178 29.8466 47.6768 35.4571 46.447L44.2637 13.1111H37.1534L34.1469 27.5238C33.3385 31.7191 32.605 34.9971 32.0395 38.8351H31.9392C31.4252 35.0354 30.7715 31.8872 29.9497 27.7997L26.8192 13.1111H19.4109L16.0623 27.4297C15.1136 31.7806 14.2263 35.2942 13.6621 39.002H13.5599C12.982 35.5102 12.2124 31.0944 11.379 26.8825C11.379 26.8825 9.38952 16.6412 8.6915 13.1111L1.20345 13.112L1.20276 13.1085ZM68.9848 13.1085V46.4444H75.7544V39.3657V13.1069H68.9848V13.1085ZM164.328 13.1085V37.701C164.328 41.0917 164.966 43.4672 166.331 44.9185C167.524 46.1878 169.489 47.0097 171.843 47.0097C173.844 47.0097 175.813 46.6301 176.742 46.2844L176.654 40.9941C175.964 41.1641 175.169 41.3001 174.083 41.3001C171.777 41.3001 171.003 39.8231 171.003 36.7787V27.3698H176.899V20.9916H171.003V13.1086H164.328L164.328 13.1085ZM53.8562 20.8365C49.6491 20.8365 46.3094 22.0178 44.489 23.0697L45.8212 27.6316C47.4873 26.5813 50.14 25.7118 52.6517 25.7118C56.8104 25.7011 57.4902 28.0632 57.4902 29.5782V29.9364C48.4287 29.9228 42.7049 33.0584 42.7049 39.45C42.7049 43.3525 45.6186 47.0096 50.6852 47.0096C53.8041 47.0096 56.4125 45.7657 57.9758 43.7726H58.1291C58.1291 43.7726 59.1643 48.101 64.8674 46.4458C64.5678 44.6443 64.4705 42.7236 64.4705 40.4103V31.5048C64.4705 25.8288 62.047 20.8366 53.8562 20.8366L53.8562 20.8365ZM94.3512 20.8365C90.115 20.8365 88.2114 22.9833 87.0571 24.8046H86.9568V21.4018H80.4963V46.446H87.302V31.7586C87.302 31.0701 87.3807 30.342 87.621 29.7086C88.1849 28.2298 89.5607 26.5001 91.7573 26.5001C94.5033 26.5001 95.7883 28.8217 95.7883 32.1722V46.4458H102.587V31.5807C102.587 30.9234 102.677 30.1317 102.87 29.5506C103.429 27.8685 104.912 26.4998 106.954 26.4998C109.738 26.4998 111.074 28.781 111.074 32.7235V46.4458H117.877V31.6956C117.877 23.9166 113.927 20.8366 109.468 20.8366C107.494 20.8366 105.935 21.3318 104.526 22.1969C103.341 22.9237 102.281 23.9564 101.354 25.3162H101.254C100.176 22.6172 97.6456 20.8366 94.35 20.8366L94.3512 20.8365ZM131.723 20.8365C127.517 20.8365 124.178 22.0178 122.356 23.0697L123.69 27.6316C125.354 26.5813 128.009 25.7118 130.519 25.7118C134.675 25.7011 135.356 28.0632 135.356 29.5782V29.9364C126.296 29.9228 120.572 33.0584 120.572 39.45C120.572 43.3525 123.487 47.0096 128.556 47.0096C131.672 47.0096 134.282 45.7657 135.842 43.7726H135.996C135.996 43.7726 137.031 48.101 142.735 46.4458C142.435 44.6443 142.339 42.7236 142.339 40.4103V31.5048C142.339 25.8288 139.915 20.8366 131.723 20.8366L131.723 20.8365ZM159.985 20.8365C157.379 20.8365 154.414 22.5187 153.169 26.1248H152.979V21.4015H146.853V46.4457H153.837V33.6215C153.837 32.9296 153.879 32.3264 153.988 31.7733C154.505 29.087 156.559 27.3697 159.508 27.3697C160.318 27.3697 160.897 27.4574 161.524 27.5479V20.9914C160.999 20.8852 160.639 20.8363 159.985 20.8363L159.985 20.8365ZM57.7088 34.3744V37.4987C57.7088 37.9608 57.6686 38.4377 57.5406 38.8546C57.0167 40.5898 55.2191 42.0561 52.972 42.0561C51.0986 42.0561 49.6104 40.9929 49.6104 38.7436C49.6104 35.3031 53.3976 34.3521 57.709 34.3744H57.7088ZM135.576 34.3744V37.4987C135.576 37.9608 135.534 38.4377 135.407 38.8546C134.883 40.5898 133.086 42.0561 130.839 42.0561C128.965 42.0561 127.477 40.9929 127.477 38.7436C127.477 35.3031 131.264 34.3521 135.576 34.3744H135.576Z" fill="#0F1A2E"/>
<path d="M213.501 1.05261C211.316 1.05261 209.579 2.27307 209.579 3.75884L210.906 18.7879C211.053 19.6933 212.162 20.3918 213.503 20.3918C214.846 20.39 215.951 19.6922 216.101 18.7879L217.435 3.75884C217.435 2.2732 215.693 1.05274 213.504 1.05274L213.501 1.05261ZM191.872 13.1082C190.737 13.1351 189.449 13.9941 188.629 15.4156C187.532 17.3085 187.727 19.4237 189.009 20.1658L202.687 26.5354C203.541 26.8533 204.702 26.2465 205.374 25.0879C205.374 25.0878 205.374 25.0875 205.374 25.0873C206.049 23.923 205.997 22.614 205.286 22.0333L192.933 13.3688C192.612 13.183 192.251 13.0994 191.873 13.1084L191.872 13.1082ZM235.131 13.1082C234.753 13.0992 234.392 13.1828 234.072 13.3687L221.717 22.0332C221.011 22.6138 220.958 23.9229 221.63 25.0871L221.631 25.0877C222.305 26.2463 223.462 26.8531 224.316 26.5353L238 20.1659C239.288 19.4239 239.473 17.3087 238.384 15.4157C237.56 13.9942 236.269 13.1352 235.135 13.1083L235.131 13.1082ZM203.198 32.9369C203.021 32.9345 202.85 32.9618 202.689 33.0222L189.011 39.3842C187.728 40.1296 187.534 42.2456 188.631 44.1405C189.724 46.0296 191.651 46.9277 192.934 46.1868L205.288 37.529C205.999 36.9413 206.051 35.6326 205.376 34.4695L205.381 34.472C204.835 33.5247 203.965 32.9471 203.198 32.9367L203.198 32.9369ZM223.811 32.9369C223.045 32.9473 222.176 33.5249 221.629 34.4722L221.634 34.4697C220.962 35.6328 221.014 36.9415 221.72 37.5292L234.075 46.187C235.356 46.9279 237.285 46.0298 238.383 44.1407C239.472 42.2458 239.287 40.1297 237.999 39.3844L224.319 33.0224C224.159 32.962 223.988 32.9347 223.811 32.9371L223.811 32.9369ZM213.499 39.1655C212.161 39.1671 211.054 39.8626 210.908 40.7657L209.581 55.7941C209.581 57.2823 211.318 58.5003 213.503 58.5003C215.693 58.5003 217.433 57.2823 217.433 55.7941L216.103 40.7657C215.953 39.8626 214.848 39.1672 213.504 39.1655H213.499H213.499Z" fill="#0F1A2E"/>
</svg>
