<svg width="41" height="35" viewBox="0 0 41 35" fill="none" xmlns="http://www.w3.org/2000/svg">
<path d="M40.1433 5.47632C39.6717 3.32072 38.2824 1.62303 36.5184 1.0469C33.3211 0 20.5 0 20.5 0C20.5 0 7.67901 0 4.48157 1.0469C2.71757 1.62313 1.32827 3.32072 0.856735 5.47632C0 9.38346 0 17.5354 0 17.5354C0 17.5354 0 25.6873 0.856735 29.5944C1.32827 31.75 2.71757 33.377 4.48157 33.9531C7.67901 35 20.5 35 20.5 35C20.5 35 33.321 35 36.5184 33.9531C38.2824 33.377 39.6717 31.75 40.1433 29.5944C41 25.6873 41 17.5354 41 17.5354C41 17.5354 41 9.38346 40.1433 5.47632ZM16.3068 24.9367V10.134L27.0227 17.5355L16.3068 24.9367Z" fill="#0F1A2E"/>
</svg>
